<?xml version="1.0" encoding="UTF-8" standalone="no"?>
<!DOCTYPE svg PUBLIC "-//W3C//DTD SVG 1.1//EN"
 "http://www.w3.org/Graphics/SVG/1.1/DTD/svg11.dtd">
<!-- Generated by graphviz version 12.1.0 (20240811.2233)
 -->
<!-- Pages: 1 -->
<svg width="152pt" height="350pt"
 viewBox="0.00 0.00 152.31 349.58" xmlns="http://www.w3.org/2000/svg" xmlns:xlink="http://www.w3.org/1999/xlink">
<g id="graph0" class="graph" transform="scale(1 1) rotate(0) translate(4 345.58)">
<polygon fill="white" stroke="none" points="-4,4 -4,-345.58 148.31,-345.58 148.31,4 -4,4"/>
<!-- 8eca2b1c4353bcf2951061bbb7613ee92322a84d -->
<g id="node1" class="node">
<title>8eca2b1c4353bcf2951061bbb7613ee92322a84d</title>
<g id="a_node1"><a xlink:title="sha: 8eca2b1c4353bcf2951061bbb7613ee92322a84d&#10;&#10;author: Elena Coder &lt;elena.coder@mail.com&gt;&#10;Wed Jan 01 09:00:00 2025 +0100&#10;committer: Elena Coder &lt;elena.coder@mail.com&gt;&#10;Wed Jan 01 09:00:00 2025 +0100&#10;&#10;A">
<polygon fill="#cdad00" stroke="#cdad00" points="103.94,-17.94 94.25,-17.94 94.25,0 103.94,0 103.94,-17.94"/>
<text text-anchor="middle" x="99.09" y="-3.92" font-family="Courier,monospace" font-size="14.00">A</text>
</a>
</g>
</g>
<!-- ae481fe6194c1cc564022d8dff3767f86fa2a7fb -->
<g id="node2" class="node">
<title>ae481fe6194c1cc564022d8dff3767f86fa2a7fb</title>
<g id="a_node2"><a xlink:title="sha: ae481fe6194c1cc564022d8dff3767f86fa2a7fb&#10;&#10;author: Elena Coder &lt;elena.coder@mail.com&gt;&#10;Wed Jan 01 10:00:00 2025 +0100&#10;committer: Elena Coder &lt;elena.coder@mail.com&gt;&#10;Wed Jan 01 10:00:00 2025 +0100&#10;&#10;B">
<polygon fill="#cdad00" stroke="#cdad00" points="103.94,-71.88 94.25,-71.88 94.25,-53.94 103.94,-53.94 103.94,-71.88"/>
<text text-anchor="middle" x="99.09" y="-57.86" font-family="Courier,monospace" font-size="14.00">B</text>
</a>
</g>
</g>
<!-- ae481fe6194c1cc564022d8dff3767f86fa2a7fb&#45;&gt;8eca2b1c4353bcf2951061bbb7613ee92322a84d -->
<g id="edge6" class="edge">
<title>ae481fe6194c1cc564022d8dff3767f86fa2a7fb&#45;&gt;8eca2b1c4353bcf2951061bbb7613ee92322a84d</title>
<path fill="none" stroke="#1a1a1a" d="M99.09,-53.79C99.09,-45.99 99.09,-34.01 99.09,-24.55"/>
<polygon fill="#1a1a1a" stroke="#1a1a1a" points="100.85,-24.71 99.1,-19.71 97.35,-24.71 100.85,-24.71"/>
</g>
<!-- 02962dad541cf18b183b2bbd02610f8ce7075b82 -->
<g id="node3" class="node">
<title>02962dad541cf18b183b2bbd02610f8ce7075b82</title>
<g id="a_node3"><a xlink:title="sha: 02962dad541cf18b183b2bbd02610f8ce7075b82&#10;&#10;author: Elena Coder &lt;elena.coder@mail.com&gt;&#10;Wed Jan 01 11:00:00 2025 +0100&#10;committer: Elena Coder &lt;elena.coder@mail.com&gt;&#10;Wed Jan 01 11:00:00 2025 +0100&#10;&#10;C">
<polygon fill="#cdad00" stroke="#cdad00" points="103.94,-125.82 94.25,-125.82 94.25,-107.88 103.94,-107.88 103.94,-125.82"/>
<text text-anchor="middle" x="99.09" y="-111.8" font-family="Courier,monospace" font-size="14.00">C</text>
</a>
</g>
</g>
<!-- 02962dad541cf18b183b2bbd02610f8ce7075b82&#45;&gt;ae481fe6194c1cc564022d8dff3767f86fa2a7fb -->
<g id="edge1" class="edge">
<title>02962dad541cf18b183b2bbd02610f8ce7075b82&#45;&gt;ae481fe6194c1cc564022d8dff3767f86fa2a7fb</title>
<path fill="none" stroke="#1a1a1a" d="M99.09,-107.73C99.09,-99.93 99.09,-87.95 99.09,-78.49"/>
<polygon fill="#1a1a1a" stroke="#1a1a1a" points="100.85,-78.65 99.1,-73.65 97.35,-78.65 100.85,-78.65"/>
</g>
<!-- 1358dd701e5a1c80a5c1b70a6ccb30b8a5b7f85d -->
<g id="node4" class="node">
<title>1358dd701e5a1c80a5c1b70a6ccb30b8a5b7f85d</title>
<g id="a_node4"><a xlink:title="sha: 1358dd701e5a1c80a5c1b70a6ccb30b8a5b7f85d&#10;&#10;author: Marina Coder &lt;marina.coder@mail.com&gt;&#10;Wed Jan 01 12:00:00 2025 +0100&#10;committer: Marina Coder &lt;marina.coder@mail.com&gt;&#10;Wed Jan 01 12:00:00 2025 +0100&#10;&#10;D">
<polygon fill="#cdad00" stroke="red" points="89.94,-179.76 80.25,-179.76 80.25,-161.82 89.94,-161.82 89.94,-179.76"/>
<text text-anchor="middle" x="85.09" y="-165.74" font-family="Courier,monospace" font-size="14.00">D</text>
</a>
</g>
</g>
<!-- 1358dd701e5a1c80a5c1b70a6ccb30b8a5b7f85d&#45;&gt;02962dad541cf18b183b2bbd02610f8ce7075b82 -->
<g id="edge2" class="edge">
<title>1358dd701e5a1c80a5c1b70a6ccb30b8a5b7f85d&#45;&gt;02962dad541cf18b183b2bbd02610f8ce7075b82</title>
<path fill="none" stroke="#1a1a1a" d="M87.28,-161.67C89.41,-153.79 92.68,-141.66 95.24,-132.15"/>
<polygon fill="#1a1a1a" stroke="#1a1a1a" points="96.87,-132.82 96.48,-127.54 93.49,-131.91 96.87,-132.82"/>
</g>
<!-- 16886b13747e447a7155be1898ca09dd13759ad0 -->
<g id="node5" class="node">
<title>16886b13747e447a7155be1898ca09dd13759ad0</title>
<g id="a_node5"><a xlink:title="sha: 16886b13747e447a7155be1898ca09dd13759ad0&#10;&#10;author: Marina Coder &lt;marina.coder@mail.com&gt;&#10;Wed Jan 01 13:00:00 2025 +0100&#10;committer: Marina Coder &lt;marina.coder@mail.com&gt;&#10;Wed Jan 01 13:00:00 2025 +0100&#10;&#10;E">
<polygon fill="#cdad00" stroke="red" points="63.94,-233.7 54.25,-233.7 54.25,-215.76 63.94,-215.76 63.94,-233.7"/>
<text text-anchor="middle" x="59.09" y="-219.68" font-family="Courier,monospace" font-size="14.00">E</text>
</a>
</g>
</g>
<!-- 16886b13747e447a7155be1898ca09dd13759ad0&#45;&gt;1358dd701e5a1c80a5c1b70a6ccb30b8a5b7f85d -->
<g id="edge3" class="edge">
<title>16886b13747e447a7155be1898ca09dd13759ad0&#45;&gt;1358dd701e5a1c80a5c1b70a6ccb30b8a5b7f85d</title>
<path fill="none" stroke="#1a1a1a" d="M63.16,-215.61C67.14,-207.66 73.29,-195.36 78.07,-185.82"/>
<polygon fill="#1a1a1a" stroke="#1a1a1a" points="79.62,-186.63 80.3,-181.37 76.49,-185.06 79.62,-186.63"/>
</g>
<!-- f71c6af8c0de1b5a4d2a8bffc67f4e994c4c8d29 -->
<g id="node6" class="node">
<title>f71c6af8c0de1b5a4d2a8bffc67f4e994c4c8d29</title>
<g id="a_node6"><a xlink:title="sha: f71c6af8c0de1b5a4d2a8bffc67f4e994c4c8d29&#10;&#10;author: Elena Coder &lt;elena.coder@mail.com&gt;&#10;Wed Jan 01 12:00:00 2025 +0100&#10;committer: Elena Coder &lt;elena.coder@mail.com&gt;&#10;Wed Jan 01 12:00:00 2025 +0100&#10;&#10;F">
<polygon fill="#cdad00" stroke="#cdad00" points="124.94,-179.76 115.25,-179.76 115.25,-161.82 124.94,-161.82 124.94,-179.76"/>
<text text-anchor="middle" x="120.09" y="-165.74" font-family="Courier,monospace" font-size="14.00">F</text>
</a>
</g>
</g>
<!-- f71c6af8c0de1b5a4d2a8bffc67f4e994c4c8d29&#45;&gt;02962dad541cf18b183b2bbd02610f8ce7075b82 -->
<g id="edge7" class="edge">
<title>f71c6af8c0de1b5a4d2a8bffc67f4e994c4c8d29&#45;&gt;02962dad541cf18b183b2bbd02610f8ce7075b82</title>
<path fill="none" stroke="#1a1a1a" d="M116.81,-161.67C113.6,-153.72 108.63,-141.42 104.77,-131.88"/>
<polygon fill="#1a1a1a" stroke="#1a1a1a" points="106.49,-131.46 102.99,-127.48 103.24,-132.77 106.49,-131.46"/>
</g>
<!-- 7332855a73f97a9d693dba7c44e9e2d4727f97bb -->
<g id="node7" class="node">
<title>7332855a73f97a9d693dba7c44e9e2d4727f97bb</title>
<g id="a_node7"><a xlink:title="sha: 7332855a73f97a9d693dba7c44e9e2d4727f97bb&#10;&#10;author: Elena Coder &lt;elena.coder@mail.com&gt;&#10;Wed Jan 01 13:00:00 2025 +0100&#10;committer: Elena Coder &lt;elena.coder@mail.com&gt;&#10;Wed Jan 01 13:00:00 2025 +0100&#10;&#10;G">
<polygon fill="#cdad00" stroke="#cdad00" points="127.94,-233.7 118.25,-233.7 118.25,-215.76 127.94,-215.76 127.94,-233.7"/>
<text text-anchor="middle" x="123.09" y="-219.68" font-family="Courier,monospace" font-size="14.00">G</text>
</a>
</g>
</g>
<!-- 7332855a73f97a9d693dba7c44e9e2d4727f97bb&#45;&gt;f71c6af8c0de1b5a4d2a8bffc67f4e994c4c8d29 -->
<g id="edge4" class="edge">
<title>7332855a73f97a9d693dba7c44e9e2d4727f97bb&#45;&gt;f71c6af8c0de1b5a4d2a8bffc67f4e994c4c8d29</title>
<path fill="none" stroke="#1a1a1a" d="M122.63,-215.61C122.18,-207.81 121.48,-195.83 120.94,-186.37"/>
<polygon fill="#1a1a1a" stroke="#1a1a1a" points="122.69,-186.42 120.66,-181.53 119.2,-186.62 122.69,-186.42"/>
</g>
<!-- HEAD -->
<g id="node8" class="node">
<title>HEAD</title>
<g id="a_node8"><a xlink:title="main">
<polygon fill="cornflowerblue" stroke="cornflowerblue" points="144.31,-341.58 109.88,-341.58 109.88,-323.64 144.31,-323.64 144.31,-341.58"/>
<text text-anchor="middle" x="127.09" y="-327.56" font-family="Courier,monospace" font-size="14.00">HEAD</text>
</a>
</g>
</g>
<!-- local&#45;branch&#45;main -->
<g id="node9" class="node">
<title>local&#45;branch&#45;main</title>
<g id="a_node9"><a xlink:title="&#45;&gt; refs/remotes/origin/main">
<polygon fill="forestgreen" stroke="forestgreen" points="144.31,-287.64 109.88,-287.64 109.88,-269.7 144.31,-269.7 144.31,-287.64"/>
<text text-anchor="middle" x="127.09" y="-273.62" font-family="Courier,monospace" font-size="14.00">main</text>
</a>
</g>
</g>
<!-- HEAD&#45;&gt;local&#45;branch&#45;main -->
<g id="edge5" class="edge">
<title>HEAD&#45;&gt;local&#45;branch&#45;main</title>
<path fill="none" stroke="#1a1a1a" d="M127.09,-323.49C127.09,-315.69 127.09,-303.71 127.09,-294.25"/>
<polygon fill="#1a1a1a" stroke="#1a1a1a" points="128.85,-294.41 127.1,-289.41 125.35,-294.41 128.85,-294.41"/>
</g>
<!-- local&#45;branch&#45;main&#45;&gt;7332855a73f97a9d693dba7c44e9e2d4727f97bb -->
<g id="edge8" class="edge">
<title>local&#45;branch&#45;main&#45;&gt;7332855a73f97a9d693dba7c44e9e2d4727f97bb</title>
<path fill="none" stroke="#1a1a1a" d="M126.47,-269.55C125.87,-261.75 124.95,-249.77 124.22,-240.31"/>
<polygon fill="#1a1a1a" stroke="#1a1a1a" points="125.97,-240.32 123.85,-235.47 122.48,-240.59 125.97,-240.32"/>
</g>
<!-- origin/HEAD -->
<g id="node10" class="node">
<title>origin/HEAD</title>
<g id="a_node10"><a xlink:title="origin/main">
<polygon fill="cornflowerblue" stroke="cornflowerblue" points="92.19,-341.58 0,-341.58 0,-323.64 92.19,-323.64 92.19,-341.58"/>
<text text-anchor="middle" x="46.09" y="-327.56" font-family="Courier,monospace" font-size="14.00">origin/HEAD</text>
</a>
</g>
</g>
<!-- remote&#45;branch&#45;origin/main -->
<g id="node11" class="node">
<title>remote&#45;branch&#45;origin/main</title>
<polygon fill="firebrick" stroke="firebrick" points="92.19,-287.64 0,-287.64 0,-269.7 92.19,-269.7 92.19,-287.64"/>
<text text-anchor="middle" x="46.09" y="-273.62" font-family="Courier,monospace" font-size="14.00">origin/main</text>
</g>
<!-- origin/HEAD&#45;&gt;remote&#45;branch&#45;origin/main -->
<g id="edge9" class="edge">
<title>origin/HEAD&#45;&gt;remote&#45;branch&#45;origin/main</title>
<path fill="none" stroke="#1a1a1a" d="M46.09,-323.49C46.09,-315.69 46.09,-303.71 46.09,-294.25"/>
<polygon fill="#1a1a1a" stroke="#1a1a1a" points="47.85,-294.41 46.1,-289.41 44.35,-294.41 47.85,-294.41"/>
</g>
<!-- remote&#45;branch&#45;origin/main&#45;&gt;16886b13747e447a7155be1898ca09dd13759ad0 -->
<g id="edge10" class="edge">
<title>remote&#45;branch&#45;origin/main&#45;&gt;16886b13747e447a7155be1898ca09dd13759ad0</title>
<path fill="none" stroke="#1a1a1a" d="M48.13,-269.55C50.1,-261.67 53.14,-249.54 55.51,-240.03"/>
<polygon fill="#1a1a1a" stroke="#1a1a1a" points="57.15,-240.7 56.67,-235.43 53.76,-239.85 57.15,-240.7"/>
</g>
</g>
</svg>
