<?xml version="1.0" encoding="UTF-8" standalone="no"?>
<!DOCTYPE svg PUBLIC "-//W3C//DTD SVG 1.1//EN"
 "http://www.w3.org/Graphics/SVG/1.1/DTD/svg11.dtd">
<!-- Generated by graphviz version 12.1.0 (20240811.2233)
 -->
<!-- Pages: 1 -->
<svg width="197pt" height="457pt"
 viewBox="0.00 0.00 196.81 457.46" xmlns="http://www.w3.org/2000/svg" xmlns:xlink="http://www.w3.org/1999/xlink">
<g id="graph0" class="graph" transform="scale(1 1) rotate(0) translate(4 453.46)">
<polygon fill="white" stroke="none" points="-4,4 -4,-453.46 192.81,-453.46 192.81,4 -4,4"/>
<!-- 1202fea90edfd36ebd310e268006a22deb232984 -->
<g id="node1" class="node">
<title>1202fea90edfd36ebd310e268006a22deb232984</title>
<g id="a_node1"><a xlink:title="author: First Last &lt;first.last@mail.com&gt;&#10;Wed Jan 01 14:00:00 2025 +0100&#10;committer: Nom Prenom &lt;nom.prenom@mail.com&gt;&#10;Wed Jan 01 14:00:00 2025 +0100&#10;&#10;F">
<polygon fill="#cdad00" stroke="#cdad00" points="136.19,-125.82 77,-125.82 77,-107.88 136.19,-107.88 136.19,-125.82"/>
<text text-anchor="middle" x="106.59" y="-111.8" font-family="Courier,monospace" font-size="14.00">1202fea</text>
</a>
</g>
</g>
<!-- b5c097669d4d46d1b6574e5f8e46584c7ecf7193 -->
<g id="node7" class="node">
<title>b5c097669d4d46d1b6574e5f8e46584c7ecf7193</title>
<g id="a_node7"><a xlink:title="author: First Last &lt;first.last@mail.com&gt;&#10;Wed Jan 01 10:00:00 2025 +0100&#10;committer: Nom Prenom &lt;nom.prenom@mail.com&gt;&#10;Wed Jan 01 10:00:00 2025 +0100&#10;&#10;B">
<polygon fill="#cdad00" stroke="#cdad00" points="97.19,-71.88 38,-71.88 38,-53.94 97.19,-53.94 97.19,-71.88"/>
<text text-anchor="middle" x="67.59" y="-57.86" font-family="Courier,monospace" font-size="14.00">b5c0976</text>
</a>
</g>
</g>
<!-- 1202fea90edfd36ebd310e268006a22deb232984&#45;&gt;b5c097669d4d46d1b6574e5f8e46584c7ecf7193 -->
<g id="edge1" class="edge">
<title>1202fea90edfd36ebd310e268006a22deb232984&#45;&gt;b5c097669d4d46d1b6574e5f8e46584c7ecf7193</title>
<path fill="none" stroke="#1a1a1a" d="M100.5,-107.73C94.36,-99.55 84.77,-86.78 77.52,-77.13"/>
<polygon fill="#1a1a1a" stroke="#1a1a1a" points="79.09,-76.3 74.68,-73.35 76.29,-78.4 79.09,-76.3"/>
</g>
<!-- 30168f015e4db6c3d27658a895b00ab434748569 -->
<g id="node2" class="node">
<title>30168f015e4db6c3d27658a895b00ab434748569</title>
<g id="a_node2"><a xlink:title="author: First Last &lt;first.last@mail.com&gt;&#10;Wed Jan 01 12:00:00 2025 +0100&#10;committer: Nom Prenom &lt;nom.prenom@mail.com&gt;&#10;Wed Jan 01 12:00:00 2025 +0100&#10;&#10;D">
<polygon fill="darkorange" stroke="darkorange" points="59.19,-179.76 0,-179.76 0,-161.82 59.19,-161.82 59.19,-179.76"/>
<text text-anchor="middle" x="29.59" y="-165.74" font-family="Courier,monospace" font-size="14.00">30168f0</text>
</a>
</g>
</g>
<!-- f8ed6cdbb4d61cc9bd02afa56a54df2398537095 -->
<g id="node11" class="node">
<title>f8ed6cdbb4d61cc9bd02afa56a54df2398537095</title>
<g id="a_node11"><a xlink:title="author: First Last &lt;first.last@mail.com&gt;&#10;Wed Jan 01 11:00:00 2025 +0100&#10;committer: Nom Prenom &lt;nom.prenom@mail.com&gt;&#10;Wed Jan 01 11:00:00 2025 +0100&#10;&#10;C">
<polygon fill="darkorange" stroke="darkorange" points="59.19,-125.82 0,-125.82 0,-107.88 59.19,-107.88 59.19,-125.82"/>
<text text-anchor="middle" x="29.59" y="-111.8" font-family="Courier,monospace" font-size="14.00">f8ed6cd</text>
</a>
</g>
</g>
<!-- 30168f015e4db6c3d27658a895b00ab434748569&#45;&gt;f8ed6cdbb4d61cc9bd02afa56a54df2398537095 -->
<g id="edge2" class="edge">
<title>30168f015e4db6c3d27658a895b00ab434748569&#45;&gt;f8ed6cdbb4d61cc9bd02afa56a54df2398537095</title>
<path fill="none" stroke="#1a1a1a" d="M29.59,-161.67C29.59,-153.87 29.59,-141.89 29.59,-132.43"/>
<polygon fill="#1a1a1a" stroke="#1a1a1a" points="31.35,-132.59 29.6,-127.59 27.85,-132.59 31.35,-132.59"/>
</g>
<!-- 7278ac71bde56f7145e834122ba75985adb9a221 -->
<g id="node3" class="node">
<title>7278ac71bde56f7145e834122ba75985adb9a221</title>
<g id="a_node3"><a xlink:title="author: First Last &lt;first.last@mail.com&gt;&#10;Wed Jan 01 15:00:00 2025 +0100&#10;committer: Nom Prenom &lt;nom.prenom@mail.com&gt;&#10;Wed Jan 01 15:00:00 2025 +0100&#10;&#10;G">
<polygon fill="#cdad00" stroke="#cdad00" points="136.19,-179.76 77,-179.76 77,-161.82 136.19,-161.82 136.19,-179.76"/>
<text text-anchor="middle" x="106.59" y="-165.74" font-family="Courier,monospace" font-size="14.00">7278ac7</text>
</a>
</g>
</g>
<!-- 7278ac71bde56f7145e834122ba75985adb9a221&#45;&gt;1202fea90edfd36ebd310e268006a22deb232984 -->
<g id="edge3" class="edge">
<title>7278ac71bde56f7145e834122ba75985adb9a221&#45;&gt;1202fea90edfd36ebd310e268006a22deb232984</title>
<path fill="none" stroke="#1a1a1a" d="M106.59,-161.67C106.59,-153.87 106.59,-141.89 106.59,-132.43"/>
<polygon fill="#1a1a1a" stroke="#1a1a1a" points="108.35,-132.59 106.6,-127.59 104.85,-132.59 108.35,-132.59"/>
</g>
<!-- 7d655dc3e982df7c048df3a57f6b6938acc7fb4c -->
<g id="node4" class="node">
<title>7d655dc3e982df7c048df3a57f6b6938acc7fb4c</title>
<g id="a_node4"><a xlink:title="author: First Last &lt;first.last@mail.com&gt;&#10;Wed Jan 01 13:00:00 2025 +0100&#10;committer: Nom Prenom &lt;nom.prenom@mail.com&gt;&#10;Wed Jan 01 13:00:00 2025 +0100&#10;&#10;E">
<polygon fill="darkorange" stroke="darkorange" points="59.19,-233.7 0,-233.7 0,-215.76 59.19,-215.76 59.19,-233.7"/>
<text text-anchor="middle" x="29.59" y="-219.68" font-family="Courier,monospace" font-size="14.00">7d655dc</text>
</a>
</g>
</g>
<!-- 7d655dc3e982df7c048df3a57f6b6938acc7fb4c&#45;&gt;30168f015e4db6c3d27658a895b00ab434748569 -->
<g id="edge4" class="edge">
<title>7d655dc3e982df7c048df3a57f6b6938acc7fb4c&#45;&gt;30168f015e4db6c3d27658a895b00ab434748569</title>
<path fill="none" stroke="#1a1a1a" d="M29.59,-215.61C29.59,-207.81 29.59,-195.83 29.59,-186.37"/>
<polygon fill="#1a1a1a" stroke="#1a1a1a" points="31.35,-186.53 29.6,-181.53 27.85,-186.53 31.35,-186.53"/>
</g>
<!-- 8bb9c6cd4bae803a02ccc95bc9c821d535e3cbf8 -->
<g id="node5" class="node">
<title>8bb9c6cd4bae803a02ccc95bc9c821d535e3cbf8</title>
<g id="a_node5"><a xlink:title="author: First Last &lt;first.last@mail.com&gt;&#10;Wed Jan 01 12:00:00 2025 +0100&#10;committer: Nom Prenom &lt;nom.prenom@mail.com&gt;&#10;Wed Jan 01 16:00:00 2025 +0100&#10;&#10;D">
<polygon fill="#cdad00" stroke="#cdad00" points="136.19,-287.64 77,-287.64 77,-269.7 136.19,-269.7 136.19,-287.64"/>
<text text-anchor="middle" x="106.59" y="-273.62" font-family="Courier,monospace" font-size="14.00">8bb9c6c</text>
</a>
</g>
</g>
<!-- bd093d7486efcb8b3894b4b9f5252ea3cc90d10d -->
<g id="node8" class="node">
<title>bd093d7486efcb8b3894b4b9f5252ea3cc90d10d</title>
<g id="a_node8"><a xlink:title="author: First Last &lt;first.last@mail.com&gt;&#10;Wed Jan 01 11:00:00 2025 +0100&#10;committer: Nom Prenom &lt;nom.prenom@mail.com&gt;&#10;Wed Jan 01 16:00:00 2025 +0100&#10;&#10;C">
<polygon fill="#cdad00" stroke="#cdad00" points="136.19,-233.7 77,-233.7 77,-215.76 136.19,-215.76 136.19,-233.7"/>
<text text-anchor="middle" x="106.59" y="-219.68" font-family="Courier,monospace" font-size="14.00">bd093d7</text>
</a>
</g>
</g>
<!-- 8bb9c6cd4bae803a02ccc95bc9c821d535e3cbf8&#45;&gt;bd093d7486efcb8b3894b4b9f5252ea3cc90d10d -->
<g id="edge5" class="edge">
<title>8bb9c6cd4bae803a02ccc95bc9c821d535e3cbf8&#45;&gt;bd093d7486efcb8b3894b4b9f5252ea3cc90d10d</title>
<path fill="none" stroke="#1a1a1a" d="M106.59,-269.55C106.59,-261.75 106.59,-249.77 106.59,-240.31"/>
<polygon fill="#1a1a1a" stroke="#1a1a1a" points="108.35,-240.47 106.6,-235.47 104.85,-240.47 108.35,-240.47"/>
</g>
<!-- HEAD -->
<g id="node6" class="node">
<title>HEAD</title>
<g id="a_node6"><a xlink:title="feature">
<polygon fill="cornflowerblue" stroke="cornflowerblue" points="123.81,-449.46 89.38,-449.46 89.38,-431.52 123.81,-431.52 123.81,-449.46"/>
<text text-anchor="middle" x="106.59" y="-435.44" font-family="Courier,monospace" font-size="14.00">HEAD</text>
</a>
</g>
</g>
<!-- local&#45;branch&#45;feature -->
<g id="node12" class="node">
<title>local&#45;branch&#45;feature</title>
<g id="a_node12"><a xlink:title="&#45;&gt; None">
<polygon fill="forestgreen" stroke="forestgreen" points="136.19,-395.52 77,-395.52 77,-377.58 136.19,-377.58 136.19,-395.52"/>
<text text-anchor="middle" x="106.59" y="-381.5" font-family="Courier,monospace" font-size="14.00">feature</text>
</a>
</g>
</g>
<!-- HEAD&#45;&gt;local&#45;branch&#45;feature -->
<g id="edge6" class="edge">
<title>HEAD&#45;&gt;local&#45;branch&#45;feature</title>
<path fill="none" stroke="#1a1a1a" d="M106.59,-431.37C106.59,-423.57 106.59,-411.59 106.59,-402.13"/>
<polygon fill="#1a1a1a" stroke="#1a1a1a" points="108.35,-402.29 106.6,-397.29 104.85,-402.29 108.35,-402.29"/>
</g>
<!-- ea0bd76be523844f6b6f7745efc26b63d8ece1b5 -->
<g id="node10" class="node">
<title>ea0bd76be523844f6b6f7745efc26b63d8ece1b5</title>
<g id="a_node10"><a xlink:title="author: First Last &lt;first.last@mail.com&gt;&#10;Wed Jan 01 09:00:00 2025 +0100&#10;committer: Nom Prenom &lt;nom.prenom@mail.com&gt;&#10;Wed Jan 01 09:00:00 2025 +0100&#10;&#10;A">
<polygon fill="#cdad00" stroke="#cdad00" points="97.19,-17.94 38,-17.94 38,0 97.19,0 97.19,-17.94"/>
<text text-anchor="middle" x="67.59" y="-3.92" font-family="Courier,monospace" font-size="14.00">ea0bd76</text>
</a>
</g>
</g>
<!-- b5c097669d4d46d1b6574e5f8e46584c7ecf7193&#45;&gt;ea0bd76be523844f6b6f7745efc26b63d8ece1b5 -->
<g id="edge7" class="edge">
<title>b5c097669d4d46d1b6574e5f8e46584c7ecf7193&#45;&gt;ea0bd76be523844f6b6f7745efc26b63d8ece1b5</title>
<path fill="none" stroke="#1a1a1a" d="M67.59,-53.79C67.59,-45.99 67.59,-34.01 67.59,-24.55"/>
<polygon fill="#1a1a1a" stroke="#1a1a1a" points="69.35,-24.71 67.6,-19.71 65.85,-24.71 69.35,-24.71"/>
</g>
<!-- bd093d7486efcb8b3894b4b9f5252ea3cc90d10d&#45;&gt;7278ac71bde56f7145e834122ba75985adb9a221 -->
<g id="edge8" class="edge">
<title>bd093d7486efcb8b3894b4b9f5252ea3cc90d10d&#45;&gt;7278ac71bde56f7145e834122ba75985adb9a221</title>
<path fill="none" stroke="#1a1a1a" d="M106.59,-215.61C106.59,-207.81 106.59,-195.83 106.59,-186.37"/>
<polygon fill="#1a1a1a" stroke="#1a1a1a" points="108.35,-186.53 106.6,-181.53 104.85,-186.53 108.35,-186.53"/>
</g>
<!-- d56f7af9af9f0ab0c8b24972b4e803eff678d190 -->
<g id="node9" class="node">
<title>d56f7af9af9f0ab0c8b24972b4e803eff678d190</title>
<g id="a_node9"><a xlink:title="author: First Last &lt;first.last@mail.com&gt;&#10;Wed Jan 01 13:00:00 2025 +0100&#10;committer: Nom Prenom &lt;nom.prenom@mail.com&gt;&#10;Wed Jan 01 16:00:00 2025 +0100&#10;&#10;E">
<polygon fill="#cdad00" stroke="#cdad00" points="136.19,-341.58 77,-341.58 77,-323.64 136.19,-323.64 136.19,-341.58"/>
<text text-anchor="middle" x="106.59" y="-327.56" font-family="Courier,monospace" font-size="14.00">d56f7af</text>
</a>
</g>
</g>
<!-- d56f7af9af9f0ab0c8b24972b4e803eff678d190&#45;&gt;8bb9c6cd4bae803a02ccc95bc9c821d535e3cbf8 -->
<g id="edge9" class="edge">
<title>d56f7af9af9f0ab0c8b24972b4e803eff678d190&#45;&gt;8bb9c6cd4bae803a02ccc95bc9c821d535e3cbf8</title>
<path fill="none" stroke="#1a1a1a" d="M106.59,-323.49C106.59,-315.69 106.59,-303.71 106.59,-294.25"/>
<polygon fill="#1a1a1a" stroke="#1a1a1a" points="108.35,-294.41 106.6,-289.41 104.85,-294.41 108.35,-294.41"/>
</g>
<!-- f8ed6cdbb4d61cc9bd02afa56a54df2398537095&#45;&gt;b5c097669d4d46d1b6574e5f8e46584c7ecf7193 -->
<g id="edge10" class="edge">
<title>f8ed6cdbb4d61cc9bd02afa56a54df2398537095&#45;&gt;b5c097669d4d46d1b6574e5f8e46584c7ecf7193</title>
<path fill="none" stroke="#1a1a1a" d="M35.53,-107.73C41.52,-99.55 50.86,-86.78 57.92,-77.13"/>
<polygon fill="#1a1a1a" stroke="#1a1a1a" points="59.14,-78.43 60.68,-73.36 56.32,-76.36 59.14,-78.43"/>
</g>
<!-- local&#45;branch&#45;feature&#45;&gt;d56f7af9af9f0ab0c8b24972b4e803eff678d190 -->
<g id="edge11" class="edge">
<title>local&#45;branch&#45;feature&#45;&gt;d56f7af9af9f0ab0c8b24972b4e803eff678d190</title>
<path fill="none" stroke="#1a1a1a" d="M106.59,-377.43C106.59,-369.63 106.59,-357.65 106.59,-348.19"/>
<polygon fill="#1a1a1a" stroke="#1a1a1a" points="108.35,-348.35 106.6,-343.35 104.85,-348.35 108.35,-348.35"/>
</g>
<!-- local&#45;branch&#45;main -->
<g id="node13" class="node">
<title>local&#45;branch&#45;main</title>
<g id="a_node13"><a xlink:title="&#45;&gt; None">
<polygon fill="forestgreen" stroke="forestgreen" points="188.81,-233.7 154.38,-233.7 154.38,-215.76 188.81,-215.76 188.81,-233.7"/>
<text text-anchor="middle" x="171.59" y="-219.68" font-family="Courier,monospace" font-size="14.00">main</text>
</a>
</g>
</g>
<!-- local&#45;branch&#45;main&#45;&gt;7278ac71bde56f7145e834122ba75985adb9a221 -->
<g id="edge12" class="edge">
<title>local&#45;branch&#45;main&#45;&gt;7278ac71bde56f7145e834122ba75985adb9a221</title>
<path fill="none" stroke="#1a1a1a" d="M161.15,-215.38C150.48,-206.85 133.79,-193.52 121.68,-183.84"/>
<polygon fill="#1a1a1a" stroke="#1a1a1a" points="122.98,-182.64 117.98,-180.89 120.79,-185.38 122.98,-182.64"/>
</g>
</g>
</svg>
