<?xml version="1.0" encoding="UTF-8" standalone="no"?>
<!DOCTYPE svg PUBLIC "-//W3C//DTD SVG 1.1//EN"
 "http://www.w3.org/Graphics/SVG/1.1/DTD/svg11.dtd">
<!-- Generated by graphviz version 12.1.0 (20240811.2233)
 -->
<!-- Pages: 1 -->
<svg width="221pt" height="350pt"
 viewBox="0.00 0.00 221.19 349.58" xmlns="http://www.w3.org/2000/svg" xmlns:xlink="http://www.w3.org/1999/xlink">
<g id="graph0" class="graph" transform="scale(1 1) rotate(0) translate(4 345.58)">
<polygon fill="white" stroke="none" points="-4,4 -4,-345.58 217.19,-345.58 217.19,4 -4,4"/>
<!-- 103ff1e7c2d3f1262a3438a7dd6164036312f7f6 -->
<g id="node1" class="node">
<title>103ff1e7c2d3f1262a3438a7dd6164036312f7f6</title>
<g id="a_node1"><a xlink:title="author: Elena Coder &lt;elena.coder@mail.com&gt;&#10;Wed Jan 01 11:00:00 2025 +0100&#10;committer: Elena Coder &lt;elena.coder@mail.com&gt;&#10;Wed Jan 01 11:00:00 2025 +0100&#10;&#10;C3">
<polygon fill="#cdad00" stroke="#cdad00" points="136.19,-125.82 77,-125.82 77,-107.88 136.19,-107.88 136.19,-125.82"/>
<text text-anchor="middle" x="106.59" y="-111.8" font-family="Courier,monospace" font-size="14.00">103ff1e</text>
</a>
</g>
</g>
<!-- e6416e56d31965d7c416f355bb5b3e511158e3d6 -->
<g id="node10" class="node">
<title>e6416e56d31965d7c416f355bb5b3e511158e3d6</title>
<g id="a_node10"><a xlink:title="author: First Last &lt;first.last@mail.com&gt;&#10;Wed Jan 01 10:00:00 2025 +0100&#10;committer: Nom Prenom &lt;nom.prenom@mail.com&gt;&#10;Wed Jan 01 10:00:00 2025 +0100&#10;&#10;C2">
<polygon fill="#cdad00" stroke="#cdad00" points="97.19,-71.88 38,-71.88 38,-53.94 97.19,-53.94 97.19,-71.88"/>
<text text-anchor="middle" x="67.59" y="-57.86" font-family="Courier,monospace" font-size="14.00">e6416e5</text>
</a>
</g>
</g>
<!-- 103ff1e7c2d3f1262a3438a7dd6164036312f7f6&#45;&gt;e6416e56d31965d7c416f355bb5b3e511158e3d6 -->
<g id="edge1" class="edge">
<title>103ff1e7c2d3f1262a3438a7dd6164036312f7f6&#45;&gt;e6416e56d31965d7c416f355bb5b3e511158e3d6</title>
<path fill="none" stroke="#1a1a1a" d="M100.5,-107.73C94.36,-99.55 84.77,-86.78 77.52,-77.13"/>
<polygon fill="#1a1a1a" stroke="#1a1a1a" points="79.09,-76.3 74.68,-73.35 76.29,-78.4 79.09,-76.3"/>
</g>
<!-- 2efdb791e77d226570044a87e04dfcf8778ed29d -->
<g id="node2" class="node">
<title>2efdb791e77d226570044a87e04dfcf8778ed29d</title>
<g id="a_node2"><a xlink:title="author: Marina Coder &lt;marina.coder@mail.com&gt;&#10;Wed Jan 01 13:00:00 2025 +0100&#10;committer: Marina Coder &lt;marina.coder@mail.com&gt;&#10;Wed Jan 01 13:00:00 2025 +0100&#10;&#10;C9">
<polygon fill="#cdad00" stroke="#cdad00" points="136.19,-233.7 77,-233.7 77,-215.76 136.19,-215.76 136.19,-233.7"/>
<text text-anchor="middle" x="106.59" y="-219.68" font-family="Courier,monospace" font-size="14.00">2efdb79</text>
</a>
</g>
</g>
<!-- a0e8783a03f89b1595bc08a58c9dea4712aa2fb6 -->
<g id="node7" class="node">
<title>a0e8783a03f89b1595bc08a58c9dea4712aa2fb6</title>
<g id="a_node7"><a xlink:title="author: Marina Coder &lt;marina.coder@mail.com&gt;&#10;Wed Jan 01 12:00:00 2025 +0100&#10;committer: Marina Coder &lt;marina.coder@mail.com&gt;&#10;Wed Jan 01 12:00:00 2025 +0100&#10;&#10;C8">
<polygon fill="#cdad00" stroke="#cdad00" points="136.19,-179.76 77,-179.76 77,-161.82 136.19,-161.82 136.19,-179.76"/>
<text text-anchor="middle" x="106.59" y="-165.74" font-family="Courier,monospace" font-size="14.00">a0e8783</text>
</a>
</g>
</g>
<!-- 2efdb791e77d226570044a87e04dfcf8778ed29d&#45;&gt;a0e8783a03f89b1595bc08a58c9dea4712aa2fb6 -->
<g id="edge2" class="edge">
<title>2efdb791e77d226570044a87e04dfcf8778ed29d&#45;&gt;a0e8783a03f89b1595bc08a58c9dea4712aa2fb6</title>
<path fill="none" stroke="#1a1a1a" d="M106.59,-215.61C106.59,-207.81 106.59,-195.83 106.59,-186.37"/>
<polygon fill="#1a1a1a" stroke="#1a1a1a" points="108.35,-186.53 106.6,-181.53 104.85,-186.53 108.35,-186.53"/>
</g>
<!-- 4715818fc7ff0e7a52eec2de5fe0b0376d9b72de -->
<g id="node3" class="node">
<title>4715818fc7ff0e7a52eec2de5fe0b0376d9b72de</title>
<g id="a_node3"><a xlink:title="author: Elena Coder &lt;elena.coder@mail.com&gt;&#10;Wed Jan 01 15:00:00 2025 +0100&#10;committer: Elena Coder &lt;elena.coder@mail.com&gt;&#10;Wed Jan 01 15:00:00 2025 +0100&#10;&#10;C10">
<polygon fill="#cdad00" stroke="#cdad00" points="213.19,-233.7 154,-233.7 154,-215.76 213.19,-215.76 213.19,-233.7"/>
<text text-anchor="middle" x="183.59" y="-219.68" font-family="Courier,monospace" font-size="14.00">4715818</text>
</a>
</g>
</g>
<!-- ec184df101d6a46c186671c42bb4707cd76f2323 -->
<g id="node11" class="node">
<title>ec184df101d6a46c186671c42bb4707cd76f2323</title>
<g id="a_node11"><a xlink:title="author: Elena Coder &lt;elena.coder@mail.com&gt;&#10;Wed Jan 01 14:00:00 2025 +0100&#10;committer: Elena Coder &lt;elena.coder@mail.com&gt;&#10;Wed Jan 01 14:00:00 2025 +0100&#10;&#10;C4">
<polygon fill="#cdad00" stroke="#cdad00" points="213.19,-179.76 154,-179.76 154,-161.82 213.19,-161.82 213.19,-179.76"/>
<text text-anchor="middle" x="183.59" y="-165.74" font-family="Courier,monospace" font-size="14.00">ec184df</text>
</a>
</g>
</g>
<!-- 4715818fc7ff0e7a52eec2de5fe0b0376d9b72de&#45;&gt;ec184df101d6a46c186671c42bb4707cd76f2323 -->
<g id="edge3" class="edge">
<title>4715818fc7ff0e7a52eec2de5fe0b0376d9b72de&#45;&gt;ec184df101d6a46c186671c42bb4707cd76f2323</title>
<path fill="none" stroke="#1a1a1a" d="M183.59,-215.61C183.59,-207.81 183.59,-195.83 183.59,-186.37"/>
<polygon fill="#1a1a1a" stroke="#1a1a1a" points="185.35,-186.53 183.6,-181.53 181.85,-186.53 185.35,-186.53"/>
</g>
<!-- 72756226e7a512fed936b9a70efba4d8706f3c9b -->
<g id="node4" class="node">
<title>72756226e7a512fed936b9a70efba4d8706f3c9b</title>
<g id="a_node4"><a xlink:title="author: First Last &lt;first.last@mail.com&gt;&#10;Wed Jan 01 16:00:00 2025 +0100&#10;committer: Nom Prenom &lt;nom.prenom@mail.com&gt;&#10;Wed Jan 01 16:00:00 2025 +0100&#10;&#10;C5">
<polygon fill="#cdad00" stroke="#cdad00" points="59.19,-125.82 0,-125.82 0,-107.88 59.19,-107.88 59.19,-125.82"/>
<text text-anchor="middle" x="29.59" y="-111.8" font-family="Courier,monospace" font-size="14.00">7275622</text>
</a>
</g>
</g>
<!-- 72756226e7a512fed936b9a70efba4d8706f3c9b&#45;&gt;e6416e56d31965d7c416f355bb5b3e511158e3d6 -->
<g id="edge4" class="edge">
<title>72756226e7a512fed936b9a70efba4d8706f3c9b&#45;&gt;e6416e56d31965d7c416f355bb5b3e511158e3d6</title>
<path fill="none" stroke="#1a1a1a" d="M35.53,-107.73C41.52,-99.55 50.86,-86.78 57.92,-77.13"/>
<polygon fill="#1a1a1a" stroke="#1a1a1a" points="59.14,-78.43 60.68,-73.36 56.32,-76.36 59.14,-78.43"/>
</g>
<!-- 98979753fffee1419374ba30dda161f649493ae1 -->
<g id="node5" class="node">
<title>98979753fffee1419374ba30dda161f649493ae1</title>
<g id="a_node5"><a xlink:title="author: First Last &lt;first.last@mail.com&gt;&#10;Wed Jan 01 17:00:00 2025 +0100&#10;committer: Nom Prenom &lt;nom.prenom@mail.com&gt;&#10;Wed Jan 01 17:00:00 2025 +0100&#10;&#10;C6">
<polygon fill="#cdad00" stroke="#cdad00" points="59.19,-179.76 0,-179.76 0,-161.82 59.19,-161.82 59.19,-179.76"/>
<text text-anchor="middle" x="29.59" y="-165.74" font-family="Courier,monospace" font-size="14.00">9897975</text>
</a>
</g>
</g>
<!-- 98979753fffee1419374ba30dda161f649493ae1&#45;&gt;72756226e7a512fed936b9a70efba4d8706f3c9b -->
<g id="edge5" class="edge">
<title>98979753fffee1419374ba30dda161f649493ae1&#45;&gt;72756226e7a512fed936b9a70efba4d8706f3c9b</title>
<path fill="none" stroke="#1a1a1a" d="M29.59,-161.67C29.59,-153.87 29.59,-141.89 29.59,-132.43"/>
<polygon fill="#1a1a1a" stroke="#1a1a1a" points="31.35,-132.59 29.6,-127.59 27.85,-132.59 31.35,-132.59"/>
</g>
<!-- HEAD -->
<g id="node6" class="node">
<title>HEAD</title>
<g id="a_node6"><a xlink:title="server">
<polygon fill="cornflowerblue" stroke="cornflowerblue" points="200.81,-341.58 166.38,-341.58 166.38,-323.64 200.81,-323.64 200.81,-341.58"/>
<text text-anchor="middle" x="183.59" y="-327.56" font-family="Courier,monospace" font-size="14.00">HEAD</text>
</a>
</g>
</g>
<!-- local&#45;branch&#45;server -->
<g id="node13" class="node">
<title>local&#45;branch&#45;server</title>
<g id="a_node13"><a xlink:title="&#45;&gt; None">
<polygon fill="forestgreen" stroke="forestgreen" points="209.06,-287.64 158.12,-287.64 158.12,-269.7 209.06,-269.7 209.06,-287.64"/>
<text text-anchor="middle" x="183.59" y="-273.62" font-family="Courier,monospace" font-size="14.00">server</text>
</a>
</g>
</g>
<!-- HEAD&#45;&gt;local&#45;branch&#45;server -->
<g id="edge6" class="edge">
<title>HEAD&#45;&gt;local&#45;branch&#45;server</title>
<path fill="none" stroke="#1a1a1a" d="M183.59,-323.49C183.59,-315.69 183.59,-303.71 183.59,-294.25"/>
<polygon fill="#1a1a1a" stroke="#1a1a1a" points="185.35,-294.41 183.6,-289.41 181.85,-294.41 185.35,-294.41"/>
</g>
<!-- a0e8783a03f89b1595bc08a58c9dea4712aa2fb6&#45;&gt;103ff1e7c2d3f1262a3438a7dd6164036312f7f6 -->
<g id="edge7" class="edge">
<title>a0e8783a03f89b1595bc08a58c9dea4712aa2fb6&#45;&gt;103ff1e7c2d3f1262a3438a7dd6164036312f7f6</title>
<path fill="none" stroke="#1a1a1a" d="M106.59,-161.67C106.59,-153.87 106.59,-141.89 106.59,-132.43"/>
<polygon fill="#1a1a1a" stroke="#1a1a1a" points="108.35,-132.59 106.6,-127.59 104.85,-132.59 108.35,-132.59"/>
</g>
<!-- local&#45;branch&#45;client -->
<g id="node8" class="node">
<title>local&#45;branch&#45;client</title>
<g id="a_node8"><a xlink:title="&#45;&gt; None">
<polygon fill="forestgreen" stroke="forestgreen" points="132.06,-287.64 81.12,-287.64 81.12,-269.7 132.06,-269.7 132.06,-287.64"/>
<text text-anchor="middle" x="106.59" y="-273.62" font-family="Courier,monospace" font-size="14.00">client</text>
</a>
</g>
</g>
<!-- local&#45;branch&#45;client&#45;&gt;2efdb791e77d226570044a87e04dfcf8778ed29d -->
<g id="edge10" class="edge">
<title>local&#45;branch&#45;client&#45;&gt;2efdb791e77d226570044a87e04dfcf8778ed29d</title>
<path fill="none" stroke="#1a1a1a" d="M106.59,-269.55C106.59,-261.75 106.59,-249.77 106.59,-240.31"/>
<polygon fill="#1a1a1a" stroke="#1a1a1a" points="108.35,-240.47 106.6,-235.47 104.85,-240.47 108.35,-240.47"/>
</g>
<!-- dfaa4786078702fd10ee5f3f50038227dcf9e31b -->
<g id="node9" class="node">
<title>dfaa4786078702fd10ee5f3f50038227dcf9e31b</title>
<g id="a_node9"><a xlink:title="author: First Last &lt;first.last@mail.com&gt;&#10;Wed Jan 01 09:00:00 2025 +0100&#10;committer: Nom Prenom &lt;nom.prenom@mail.com&gt;&#10;Wed Jan 01 09:00:00 2025 +0100&#10;&#10;C1">
<polygon fill="#cdad00" stroke="#cdad00" points="97.19,-17.94 38,-17.94 38,0 97.19,0 97.19,-17.94"/>
<text text-anchor="middle" x="67.59" y="-3.92" font-family="Courier,monospace" font-size="14.00">dfaa478</text>
</a>
</g>
</g>
<!-- e6416e56d31965d7c416f355bb5b3e511158e3d6&#45;&gt;dfaa4786078702fd10ee5f3f50038227dcf9e31b -->
<g id="edge8" class="edge">
<title>e6416e56d31965d7c416f355bb5b3e511158e3d6&#45;&gt;dfaa4786078702fd10ee5f3f50038227dcf9e31b</title>
<path fill="none" stroke="#1a1a1a" d="M67.59,-53.79C67.59,-45.99 67.59,-34.01 67.59,-24.55"/>
<polygon fill="#1a1a1a" stroke="#1a1a1a" points="69.35,-24.71 67.6,-19.71 65.85,-24.71 69.35,-24.71"/>
</g>
<!-- ec184df101d6a46c186671c42bb4707cd76f2323&#45;&gt;103ff1e7c2d3f1262a3438a7dd6164036312f7f6 -->
<g id="edge9" class="edge">
<title>ec184df101d6a46c186671c42bb4707cd76f2323&#45;&gt;103ff1e7c2d3f1262a3438a7dd6164036312f7f6</title>
<path fill="none" stroke="#1a1a1a" d="M171.22,-161.44C158.54,-152.89 138.69,-139.5 124.33,-129.81"/>
<polygon fill="#1a1a1a" stroke="#1a1a1a" points="125.31,-128.37 120.19,-127.02 123.36,-131.27 125.31,-128.37"/>
</g>
<!-- local&#45;branch&#45;main -->
<g id="node12" class="node">
<title>local&#45;branch&#45;main</title>
<g id="a_node12"><a xlink:title="&#45;&gt; None">
<polygon fill="forestgreen" stroke="forestgreen" points="46.81,-233.7 12.38,-233.7 12.38,-215.76 46.81,-215.76 46.81,-233.7"/>
<text text-anchor="middle" x="29.59" y="-219.68" font-family="Courier,monospace" font-size="14.00">main</text>
</a>
</g>
</g>
<!-- local&#45;branch&#45;main&#45;&gt;98979753fffee1419374ba30dda161f649493ae1 -->
<g id="edge11" class="edge">
<title>local&#45;branch&#45;main&#45;&gt;98979753fffee1419374ba30dda161f649493ae1</title>
<path fill="none" stroke="#1a1a1a" d="M29.59,-215.61C29.59,-207.81 29.59,-195.83 29.59,-186.37"/>
<polygon fill="#1a1a1a" stroke="#1a1a1a" points="31.35,-186.53 29.6,-181.53 27.85,-186.53 31.35,-186.53"/>
</g>
<!-- local&#45;branch&#45;server&#45;&gt;4715818fc7ff0e7a52eec2de5fe0b0376d9b72de -->
<g id="edge12" class="edge">
<title>local&#45;branch&#45;server&#45;&gt;4715818fc7ff0e7a52eec2de5fe0b0376d9b72de</title>
<path fill="none" stroke="#1a1a1a" d="M183.59,-269.55C183.59,-261.75 183.59,-249.77 183.59,-240.31"/>
<polygon fill="#1a1a1a" stroke="#1a1a1a" points="185.35,-240.47 183.6,-235.47 181.85,-240.47 185.35,-240.47"/>
</g>
</g>
</svg>
