<?xml version="1.0" encoding="UTF-8" standalone="no"?>
<!DOCTYPE svg PUBLIC "-//W3C//DTD SVG 1.1//EN"
 "http://www.w3.org/Graphics/SVG/1.1/DTD/svg11.dtd">
<!-- Generated by graphviz version 12.1.0 (20240811.2233)
 -->
<!-- Pages: 1 -->
<svg width="280pt" height="457pt"
 viewBox="0.00 0.00 280.19 457.46" xmlns="http://www.w3.org/2000/svg" xmlns:xlink="http://www.w3.org/1999/xlink">
<g id="graph0" class="graph" transform="scale(1 1) rotate(0) translate(4 453.46)">
<polygon fill="white" stroke="none" points="-4,4 -4,-453.46 276.19,-453.46 276.19,4 -4,4"/>
<!-- 103ff1e7c2d3f1262a3438a7dd6164036312f7f6 -->
<g id="node1" class="node">
<title>103ff1e7c2d3f1262a3438a7dd6164036312f7f6</title>
<g id="a_node1"><a xlink:title="author: Elena Coder &lt;elena.coder@mail.com&gt;&#10;Wed Jan 01 11:00:00 2025 +0100&#10;committer: Elena Coder &lt;elena.coder@mail.com&gt;&#10;Wed Jan 01 11:00:00 2025 +0100&#10;&#10;C3">
<polygon fill="#cdad00" stroke="#cdad00" points="195.19,-125.82 136,-125.82 136,-107.88 195.19,-107.88 195.19,-125.82"/>
<text text-anchor="middle" x="165.59" y="-111.8" font-family="Courier,monospace" font-size="14.00">103ff1e</text>
</a>
</g>
</g>
<!-- e6416e56d31965d7c416f355bb5b3e511158e3d6 -->
<g id="node13" class="node">
<title>e6416e56d31965d7c416f355bb5b3e511158e3d6</title>
<g id="a_node13"><a xlink:title="author: First Last &lt;first.last@mail.com&gt;&#10;Wed Jan 01 10:00:00 2025 +0100&#10;committer: Nom Prenom &lt;nom.prenom@mail.com&gt;&#10;Wed Jan 01 10:00:00 2025 +0100&#10;&#10;C2">
<polygon fill="#cdad00" stroke="#cdad00" points="156.19,-71.88 97,-71.88 97,-53.94 156.19,-53.94 156.19,-71.88"/>
<text text-anchor="middle" x="126.59" y="-57.86" font-family="Courier,monospace" font-size="14.00">e6416e5</text>
</a>
</g>
</g>
<!-- 103ff1e7c2d3f1262a3438a7dd6164036312f7f6&#45;&gt;e6416e56d31965d7c416f355bb5b3e511158e3d6 -->
<g id="edge1" class="edge">
<title>103ff1e7c2d3f1262a3438a7dd6164036312f7f6&#45;&gt;e6416e56d31965d7c416f355bb5b3e511158e3d6</title>
<path fill="none" stroke="#1a1a1a" d="M159.5,-107.73C153.36,-99.55 143.77,-86.78 136.52,-77.13"/>
<polygon fill="#1a1a1a" stroke="#1a1a1a" points="138.09,-76.3 133.68,-73.35 135.29,-78.4 138.09,-76.3"/>
</g>
<!-- 2efdb791e77d226570044a87e04dfcf8778ed29d -->
<g id="node2" class="node">
<title>2efdb791e77d226570044a87e04dfcf8778ed29d</title>
<g id="a_node2"><a xlink:title="author: Marina Coder &lt;marina.coder@mail.com&gt;&#10;Wed Jan 01 13:00:00 2025 +0100&#10;committer: Marina Coder &lt;marina.coder@mail.com&gt;&#10;Wed Jan 01 13:00:00 2025 +0100&#10;&#10;C9">
<polygon fill="#cdad00" stroke="#cdad00" points="195.19,-233.7 136,-233.7 136,-215.76 195.19,-215.76 195.19,-233.7"/>
<text text-anchor="middle" x="165.59" y="-219.68" font-family="Courier,monospace" font-size="14.00">2efdb79</text>
</a>
</g>
</g>
<!-- a0e8783a03f89b1595bc08a58c9dea4712aa2fb6 -->
<g id="node9" class="node">
<title>a0e8783a03f89b1595bc08a58c9dea4712aa2fb6</title>
<g id="a_node9"><a xlink:title="author: Marina Coder &lt;marina.coder@mail.com&gt;&#10;Wed Jan 01 12:00:00 2025 +0100&#10;committer: Marina Coder &lt;marina.coder@mail.com&gt;&#10;Wed Jan 01 12:00:00 2025 +0100&#10;&#10;C8">
<polygon fill="#cdad00" stroke="#cdad00" points="195.19,-179.76 136,-179.76 136,-161.82 195.19,-161.82 195.19,-179.76"/>
<text text-anchor="middle" x="165.59" y="-165.74" font-family="Courier,monospace" font-size="14.00">a0e8783</text>
</a>
</g>
</g>
<!-- 2efdb791e77d226570044a87e04dfcf8778ed29d&#45;&gt;a0e8783a03f89b1595bc08a58c9dea4712aa2fb6 -->
<g id="edge2" class="edge">
<title>2efdb791e77d226570044a87e04dfcf8778ed29d&#45;&gt;a0e8783a03f89b1595bc08a58c9dea4712aa2fb6</title>
<path fill="none" stroke="#1a1a1a" d="M165.59,-215.61C165.59,-207.81 165.59,-195.83 165.59,-186.37"/>
<polygon fill="#1a1a1a" stroke="#1a1a1a" points="167.35,-186.53 165.6,-181.53 163.85,-186.53 167.35,-186.53"/>
</g>
<!-- 3710d7f3d17ead7675736d08234fdd673a23e929 -->
<g id="node3" class="node">
<title>3710d7f3d17ead7675736d08234fdd673a23e929</title>
<g id="a_node3"><a xlink:title="author: Elena Coder &lt;elena.coder@mail.com&gt;&#10;Wed Jan 01 11:00:00 2025 +0100&#10;committer: Nom Prenom &lt;nom.prenom@mail.com&gt;&#10;Wed Jan 01 18:00:00 2025 +0100&#10;&#10;C3">
<polygon fill="#cdad00" stroke="#cdad00" points="59.19,-233.7 0,-233.7 0,-215.76 59.19,-215.76 59.19,-233.7"/>
<text text-anchor="middle" x="29.59" y="-219.68" font-family="Courier,monospace" font-size="14.00">3710d7f</text>
</a>
</g>
</g>
<!-- 98979753fffee1419374ba30dda161f649493ae1 -->
<g id="node7" class="node">
<title>98979753fffee1419374ba30dda161f649493ae1</title>
<g id="a_node7"><a xlink:title="author: First Last &lt;first.last@mail.com&gt;&#10;Wed Jan 01 17:00:00 2025 +0100&#10;committer: Nom Prenom &lt;nom.prenom@mail.com&gt;&#10;Wed Jan 01 17:00:00 2025 +0100&#10;&#10;C6">
<polygon fill="#cdad00" stroke="#cdad00" points="118.19,-179.76 59,-179.76 59,-161.82 118.19,-161.82 118.19,-179.76"/>
<text text-anchor="middle" x="88.59" y="-165.74" font-family="Courier,monospace" font-size="14.00">9897975</text>
</a>
</g>
</g>
<!-- 3710d7f3d17ead7675736d08234fdd673a23e929&#45;&gt;98979753fffee1419374ba30dda161f649493ae1 -->
<g id="edge3" class="edge">
<title>3710d7f3d17ead7675736d08234fdd673a23e929&#45;&gt;98979753fffee1419374ba30dda161f649493ae1</title>
<path fill="none" stroke="#1a1a1a" d="M39.07,-215.38C48.68,-206.93 63.64,-193.76 74.61,-184.1"/>
<polygon fill="#1a1a1a" stroke="#1a1a1a" points="75.6,-185.56 78.2,-180.94 73.29,-182.93 75.6,-185.56"/>
</g>
<!-- 4715818fc7ff0e7a52eec2de5fe0b0376d9b72de -->
<g id="node4" class="node">
<title>4715818fc7ff0e7a52eec2de5fe0b0376d9b72de</title>
<g id="a_node4"><a xlink:title="author: Elena Coder &lt;elena.coder@mail.com&gt;&#10;Wed Jan 01 15:00:00 2025 +0100&#10;committer: Elena Coder &lt;elena.coder@mail.com&gt;&#10;Wed Jan 01 15:00:00 2025 +0100&#10;&#10;C10">
<polygon fill="darkorange" stroke="darkorange" points="272.19,-233.7 213,-233.7 213,-215.76 272.19,-215.76 272.19,-233.7"/>
<text text-anchor="middle" x="242.59" y="-219.68" font-family="Courier,monospace" font-size="14.00">4715818</text>
</a>
</g>
</g>
<!-- ec184df101d6a46c186671c42bb4707cd76f2323 -->
<g id="node14" class="node">
<title>ec184df101d6a46c186671c42bb4707cd76f2323</title>
<g id="a_node14"><a xlink:title="author: Elena Coder &lt;elena.coder@mail.com&gt;&#10;Wed Jan 01 14:00:00 2025 +0100&#10;committer: Elena Coder &lt;elena.coder@mail.com&gt;&#10;Wed Jan 01 14:00:00 2025 +0100&#10;&#10;C4">
<polygon fill="darkorange" stroke="darkorange" points="272.19,-179.76 213,-179.76 213,-161.82 272.19,-161.82 272.19,-179.76"/>
<text text-anchor="middle" x="242.59" y="-165.74" font-family="Courier,monospace" font-size="14.00">ec184df</text>
</a>
</g>
</g>
<!-- 4715818fc7ff0e7a52eec2de5fe0b0376d9b72de&#45;&gt;ec184df101d6a46c186671c42bb4707cd76f2323 -->
<g id="edge4" class="edge">
<title>4715818fc7ff0e7a52eec2de5fe0b0376d9b72de&#45;&gt;ec184df101d6a46c186671c42bb4707cd76f2323</title>
<path fill="none" stroke="#1a1a1a" d="M242.59,-215.61C242.59,-207.81 242.59,-195.83 242.59,-186.37"/>
<polygon fill="#1a1a1a" stroke="#1a1a1a" points="244.35,-186.53 242.6,-181.53 240.85,-186.53 244.35,-186.53"/>
</g>
<!-- 70f6562bbe1b564d4fbbe1ba3b3918d307d001d8 -->
<g id="node5" class="node">
<title>70f6562bbe1b564d4fbbe1ba3b3918d307d001d8</title>
<g id="a_node5"><a xlink:title="author: Elena Coder &lt;elena.coder@mail.com&gt;&#10;Wed Jan 01 14:00:00 2025 +0100&#10;committer: Nom Prenom &lt;nom.prenom@mail.com&gt;&#10;Wed Jan 01 18:00:00 2025 +0100&#10;&#10;C4">
<polygon fill="#cdad00" stroke="#cdad00" points="59.19,-287.64 0,-287.64 0,-269.7 59.19,-269.7 59.19,-287.64"/>
<text text-anchor="middle" x="29.59" y="-273.62" font-family="Courier,monospace" font-size="14.00">70f6562</text>
</a>
</g>
</g>
<!-- 70f6562bbe1b564d4fbbe1ba3b3918d307d001d8&#45;&gt;3710d7f3d17ead7675736d08234fdd673a23e929 -->
<g id="edge5" class="edge">
<title>70f6562bbe1b564d4fbbe1ba3b3918d307d001d8&#45;&gt;3710d7f3d17ead7675736d08234fdd673a23e929</title>
<path fill="none" stroke="#1a1a1a" d="M29.59,-269.55C29.59,-261.75 29.59,-249.77 29.59,-240.31"/>
<polygon fill="#1a1a1a" stroke="#1a1a1a" points="31.35,-240.47 29.6,-235.47 27.85,-240.47 31.35,-240.47"/>
</g>
<!-- 72756226e7a512fed936b9a70efba4d8706f3c9b -->
<g id="node6" class="node">
<title>72756226e7a512fed936b9a70efba4d8706f3c9b</title>
<g id="a_node6"><a xlink:title="author: First Last &lt;first.last@mail.com&gt;&#10;Wed Jan 01 16:00:00 2025 +0100&#10;committer: Nom Prenom &lt;nom.prenom@mail.com&gt;&#10;Wed Jan 01 16:00:00 2025 +0100&#10;&#10;C5">
<polygon fill="#cdad00" stroke="#cdad00" points="118.19,-125.82 59,-125.82 59,-107.88 118.19,-107.88 118.19,-125.82"/>
<text text-anchor="middle" x="88.59" y="-111.8" font-family="Courier,monospace" font-size="14.00">7275622</text>
</a>
</g>
</g>
<!-- 72756226e7a512fed936b9a70efba4d8706f3c9b&#45;&gt;e6416e56d31965d7c416f355bb5b3e511158e3d6 -->
<g id="edge6" class="edge">
<title>72756226e7a512fed936b9a70efba4d8706f3c9b&#45;&gt;e6416e56d31965d7c416f355bb5b3e511158e3d6</title>
<path fill="none" stroke="#1a1a1a" d="M94.53,-107.73C100.52,-99.55 109.86,-86.78 116.92,-77.13"/>
<polygon fill="#1a1a1a" stroke="#1a1a1a" points="118.14,-78.43 119.68,-73.36 115.32,-76.36 118.14,-78.43"/>
</g>
<!-- 98979753fffee1419374ba30dda161f649493ae1&#45;&gt;72756226e7a512fed936b9a70efba4d8706f3c9b -->
<g id="edge7" class="edge">
<title>98979753fffee1419374ba30dda161f649493ae1&#45;&gt;72756226e7a512fed936b9a70efba4d8706f3c9b</title>
<path fill="none" stroke="#1a1a1a" d="M88.59,-161.67C88.59,-153.87 88.59,-141.89 88.59,-132.43"/>
<polygon fill="#1a1a1a" stroke="#1a1a1a" points="90.35,-132.59 88.6,-127.59 86.85,-132.59 90.35,-132.59"/>
</g>
<!-- HEAD -->
<g id="node8" class="node">
<title>HEAD</title>
<g id="a_node8"><a xlink:title="server">
<polygon fill="cornflowerblue" stroke="cornflowerblue" points="46.81,-449.46 12.38,-449.46 12.38,-431.52 46.81,-431.52 46.81,-449.46"/>
<text text-anchor="middle" x="29.59" y="-435.44" font-family="Courier,monospace" font-size="14.00">HEAD</text>
</a>
</g>
</g>
<!-- local&#45;branch&#45;server -->
<g id="node16" class="node">
<title>local&#45;branch&#45;server</title>
<g id="a_node16"><a xlink:title="&#45;&gt; None">
<polygon fill="forestgreen" stroke="forestgreen" points="55.06,-395.52 4.12,-395.52 4.12,-377.58 55.06,-377.58 55.06,-395.52"/>
<text text-anchor="middle" x="29.59" y="-381.5" font-family="Courier,monospace" font-size="14.00">server</text>
</a>
</g>
</g>
<!-- HEAD&#45;&gt;local&#45;branch&#45;server -->
<g id="edge8" class="edge">
<title>HEAD&#45;&gt;local&#45;branch&#45;server</title>
<path fill="none" stroke="#1a1a1a" d="M29.59,-431.37C29.59,-423.57 29.59,-411.59 29.59,-402.13"/>
<polygon fill="#1a1a1a" stroke="#1a1a1a" points="31.35,-402.29 29.6,-397.29 27.85,-402.29 31.35,-402.29"/>
</g>
<!-- a0e8783a03f89b1595bc08a58c9dea4712aa2fb6&#45;&gt;103ff1e7c2d3f1262a3438a7dd6164036312f7f6 -->
<g id="edge9" class="edge">
<title>a0e8783a03f89b1595bc08a58c9dea4712aa2fb6&#45;&gt;103ff1e7c2d3f1262a3438a7dd6164036312f7f6</title>
<path fill="none" stroke="#1a1a1a" d="M165.59,-161.67C165.59,-153.87 165.59,-141.89 165.59,-132.43"/>
<polygon fill="#1a1a1a" stroke="#1a1a1a" points="167.35,-132.59 165.6,-127.59 163.85,-132.59 167.35,-132.59"/>
</g>
<!-- a7ed42b4399c0da29032102063550c78da98c8e3 -->
<g id="node10" class="node">
<title>a7ed42b4399c0da29032102063550c78da98c8e3</title>
<g id="a_node10"><a xlink:title="author: Elena Coder &lt;elena.coder@mail.com&gt;&#10;Wed Jan 01 15:00:00 2025 +0100&#10;committer: Nom Prenom &lt;nom.prenom@mail.com&gt;&#10;Wed Jan 01 18:00:00 2025 +0100&#10;&#10;C10">
<polygon fill="#cdad00" stroke="#cdad00" points="59.19,-341.58 0,-341.58 0,-323.64 59.19,-323.64 59.19,-341.58"/>
<text text-anchor="middle" x="29.59" y="-327.56" font-family="Courier,monospace" font-size="14.00">a7ed42b</text>
</a>
</g>
</g>
<!-- a7ed42b4399c0da29032102063550c78da98c8e3&#45;&gt;70f6562bbe1b564d4fbbe1ba3b3918d307d001d8 -->
<g id="edge10" class="edge">
<title>a7ed42b4399c0da29032102063550c78da98c8e3&#45;&gt;70f6562bbe1b564d4fbbe1ba3b3918d307d001d8</title>
<path fill="none" stroke="#1a1a1a" d="M29.59,-323.49C29.59,-315.69 29.59,-303.71 29.59,-294.25"/>
<polygon fill="#1a1a1a" stroke="#1a1a1a" points="31.35,-294.41 29.6,-289.41 27.85,-294.41 31.35,-294.41"/>
</g>
<!-- local&#45;branch&#45;client -->
<g id="node11" class="node">
<title>local&#45;branch&#45;client</title>
<g id="a_node11"><a xlink:title="&#45;&gt; None">
<polygon fill="forestgreen" stroke="forestgreen" points="191.06,-287.64 140.12,-287.64 140.12,-269.7 191.06,-269.7 191.06,-287.64"/>
<text text-anchor="middle" x="165.59" y="-273.62" font-family="Courier,monospace" font-size="14.00">client</text>
</a>
</g>
</g>
<!-- local&#45;branch&#45;client&#45;&gt;2efdb791e77d226570044a87e04dfcf8778ed29d -->
<g id="edge13" class="edge">
<title>local&#45;branch&#45;client&#45;&gt;2efdb791e77d226570044a87e04dfcf8778ed29d</title>
<path fill="none" stroke="#1a1a1a" d="M165.59,-269.55C165.59,-261.75 165.59,-249.77 165.59,-240.31"/>
<polygon fill="#1a1a1a" stroke="#1a1a1a" points="167.35,-240.47 165.6,-235.47 163.85,-240.47 167.35,-240.47"/>
</g>
<!-- dfaa4786078702fd10ee5f3f50038227dcf9e31b -->
<g id="node12" class="node">
<title>dfaa4786078702fd10ee5f3f50038227dcf9e31b</title>
<g id="a_node12"><a xlink:title="author: First Last &lt;first.last@mail.com&gt;&#10;Wed Jan 01 09:00:00 2025 +0100&#10;committer: Nom Prenom &lt;nom.prenom@mail.com&gt;&#10;Wed Jan 01 09:00:00 2025 +0100&#10;&#10;C1">
<polygon fill="#cdad00" stroke="#cdad00" points="156.19,-17.94 97,-17.94 97,0 156.19,0 156.19,-17.94"/>
<text text-anchor="middle" x="126.59" y="-3.92" font-family="Courier,monospace" font-size="14.00">dfaa478</text>
</a>
</g>
</g>
<!-- e6416e56d31965d7c416f355bb5b3e511158e3d6&#45;&gt;dfaa4786078702fd10ee5f3f50038227dcf9e31b -->
<g id="edge11" class="edge">
<title>e6416e56d31965d7c416f355bb5b3e511158e3d6&#45;&gt;dfaa4786078702fd10ee5f3f50038227dcf9e31b</title>
<path fill="none" stroke="#1a1a1a" d="M126.59,-53.79C126.59,-45.99 126.59,-34.01 126.59,-24.55"/>
<polygon fill="#1a1a1a" stroke="#1a1a1a" points="128.35,-24.71 126.6,-19.71 124.85,-24.71 128.35,-24.71"/>
</g>
<!-- ec184df101d6a46c186671c42bb4707cd76f2323&#45;&gt;103ff1e7c2d3f1262a3438a7dd6164036312f7f6 -->
<g id="edge12" class="edge">
<title>ec184df101d6a46c186671c42bb4707cd76f2323&#45;&gt;103ff1e7c2d3f1262a3438a7dd6164036312f7f6</title>
<path fill="none" stroke="#1a1a1a" d="M230.22,-161.44C217.54,-152.89 197.69,-139.5 183.33,-129.81"/>
<polygon fill="#1a1a1a" stroke="#1a1a1a" points="184.31,-128.37 179.19,-127.02 182.36,-131.27 184.31,-128.37"/>
</g>
<!-- local&#45;branch&#45;main -->
<g id="node15" class="node">
<title>local&#45;branch&#45;main</title>
<g id="a_node15"><a xlink:title="&#45;&gt; None">
<polygon fill="forestgreen" stroke="forestgreen" points="111.81,-233.7 77.38,-233.7 77.38,-215.76 111.81,-215.76 111.81,-233.7"/>
<text text-anchor="middle" x="94.59" y="-219.68" font-family="Courier,monospace" font-size="14.00">main</text>
</a>
</g>
</g>
<!-- local&#45;branch&#45;main&#45;&gt;98979753fffee1419374ba30dda161f649493ae1 -->
<g id="edge14" class="edge">
<title>local&#45;branch&#45;main&#45;&gt;98979753fffee1419374ba30dda161f649493ae1</title>
<path fill="none" stroke="#1a1a1a" d="M93.66,-215.61C92.76,-207.81 91.37,-195.83 90.28,-186.37"/>
<polygon fill="#1a1a1a" stroke="#1a1a1a" points="92.03,-186.29 89.72,-181.52 88.55,-186.69 92.03,-186.29"/>
</g>
<!-- local&#45;branch&#45;server&#45;&gt;a7ed42b4399c0da29032102063550c78da98c8e3 -->
<g id="edge15" class="edge">
<title>local&#45;branch&#45;server&#45;&gt;a7ed42b4399c0da29032102063550c78da98c8e3</title>
<path fill="none" stroke="#1a1a1a" d="M29.59,-377.43C29.59,-369.63 29.59,-357.65 29.59,-348.19"/>
<polygon fill="#1a1a1a" stroke="#1a1a1a" points="31.35,-348.35 29.6,-343.35 27.85,-348.35 31.35,-348.35"/>
</g>
</g>
</svg>
