<?xml version="1.0" encoding="UTF-8" standalone="no"?>
<!DOCTYPE svg PUBLIC "-//W3C//DTD SVG 1.1//EN"
 "http://www.w3.org/Graphics/SVG/1.1/DTD/svg11.dtd">
<!-- Generated by graphviz version 12.1.0 (20240811.2233)
 -->
<!-- Pages: 1 -->
<svg width="316pt" height="565pt"
 viewBox="0.00 0.00 316.19 565.34" xmlns="http://www.w3.org/2000/svg" xmlns:xlink="http://www.w3.org/1999/xlink">
<g id="graph0" class="graph" transform="scale(1 1) rotate(0) translate(4 561.34)">
<polygon fill="white" stroke="none" points="-4,4 -4,-561.34 312.19,-561.34 312.19,4 -4,4"/>
<!-- 103ff1e7c2d3f1262a3438a7dd6164036312f7f6 -->
<g id="node1" class="node">
<title>103ff1e7c2d3f1262a3438a7dd6164036312f7f6</title>
<g id="a_node1"><a xlink:title="author: Elena Coder &lt;elena.coder@mail.com&gt;&#10;Wed Jan 01 11:00:00 2025 +0100&#10;committer: Elena Coder &lt;elena.coder@mail.com&gt;&#10;Wed Jan 01 11:00:00 2025 +0100&#10;&#10;C3">
<polygon fill="darkorange" stroke="darkorange" points="231.19,-125.82 172,-125.82 172,-107.88 231.19,-107.88 231.19,-125.82"/>
<text text-anchor="middle" x="201.59" y="-111.8" font-family="Courier,monospace" font-size="14.00">103ff1e</text>
</a>
</g>
</g>
<!-- e6416e56d31965d7c416f355bb5b3e511158e3d6 -->
<g id="node14" class="node">
<title>e6416e56d31965d7c416f355bb5b3e511158e3d6</title>
<g id="a_node14"><a xlink:title="author: First Last &lt;first.last@mail.com&gt;&#10;Wed Jan 01 10:00:00 2025 +0100&#10;committer: Nom Prenom &lt;nom.prenom@mail.com&gt;&#10;Wed Jan 01 10:00:00 2025 +0100&#10;&#10;C2">
<polygon fill="#cdad00" stroke="#cdad00" points="192.19,-71.88 133,-71.88 133,-53.94 192.19,-53.94 192.19,-71.88"/>
<text text-anchor="middle" x="162.59" y="-57.86" font-family="Courier,monospace" font-size="14.00">e6416e5</text>
</a>
</g>
</g>
<!-- 103ff1e7c2d3f1262a3438a7dd6164036312f7f6&#45;&gt;e6416e56d31965d7c416f355bb5b3e511158e3d6 -->
<g id="edge1" class="edge">
<title>103ff1e7c2d3f1262a3438a7dd6164036312f7f6&#45;&gt;e6416e56d31965d7c416f355bb5b3e511158e3d6</title>
<path fill="none" stroke="#1a1a1a" d="M195.5,-107.73C189.36,-99.55 179.77,-86.78 172.52,-77.13"/>
<polygon fill="#1a1a1a" stroke="#1a1a1a" points="174.09,-76.3 169.68,-73.35 171.29,-78.4 174.09,-76.3"/>
</g>
<!-- 2efdb791e77d226570044a87e04dfcf8778ed29d -->
<g id="node2" class="node">
<title>2efdb791e77d226570044a87e04dfcf8778ed29d</title>
<g id="a_node2"><a xlink:title="author: Marina Coder &lt;marina.coder@mail.com&gt;&#10;Wed Jan 01 13:00:00 2025 +0100&#10;committer: Marina Coder &lt;marina.coder@mail.com&gt;&#10;Wed Jan 01 13:00:00 2025 +0100&#10;&#10;C9">
<polygon fill="darkorange" stroke="darkorange" points="231.19,-233.7 172,-233.7 172,-215.76 231.19,-215.76 231.19,-233.7"/>
<text text-anchor="middle" x="201.59" y="-219.68" font-family="Courier,monospace" font-size="14.00">2efdb79</text>
</a>
</g>
</g>
<!-- a0e8783a03f89b1595bc08a58c9dea4712aa2fb6 -->
<g id="node9" class="node">
<title>a0e8783a03f89b1595bc08a58c9dea4712aa2fb6</title>
<g id="a_node9"><a xlink:title="author: Marina Coder &lt;marina.coder@mail.com&gt;&#10;Wed Jan 01 12:00:00 2025 +0100&#10;committer: Marina Coder &lt;marina.coder@mail.com&gt;&#10;Wed Jan 01 12:00:00 2025 +0100&#10;&#10;C8">
<polygon fill="darkorange" stroke="darkorange" points="231.19,-179.76 172,-179.76 172,-161.82 231.19,-161.82 231.19,-179.76"/>
<text text-anchor="middle" x="201.59" y="-165.74" font-family="Courier,monospace" font-size="14.00">a0e8783</text>
</a>
</g>
</g>
<!-- 2efdb791e77d226570044a87e04dfcf8778ed29d&#45;&gt;a0e8783a03f89b1595bc08a58c9dea4712aa2fb6 -->
<g id="edge2" class="edge">
<title>2efdb791e77d226570044a87e04dfcf8778ed29d&#45;&gt;a0e8783a03f89b1595bc08a58c9dea4712aa2fb6</title>
<path fill="none" stroke="#1a1a1a" d="M201.59,-215.61C201.59,-207.81 201.59,-195.83 201.59,-186.37"/>
<polygon fill="#1a1a1a" stroke="#1a1a1a" points="203.35,-186.53 201.6,-181.53 199.85,-186.53 203.35,-186.53"/>
</g>
<!-- 3710d7f3d17ead7675736d08234fdd673a23e929 -->
<g id="node3" class="node">
<title>3710d7f3d17ead7675736d08234fdd673a23e929</title>
<g id="a_node3"><a xlink:title="author: Elena Coder &lt;elena.coder@mail.com&gt;&#10;Wed Jan 01 11:00:00 2025 +0100&#10;committer: Nom Prenom &lt;nom.prenom@mail.com&gt;&#10;Wed Jan 01 18:00:00 2025 +0100&#10;&#10;C3">
<polygon fill="#cdad00" stroke="#cdad00" points="95.19,-233.7 36,-233.7 36,-215.76 95.19,-215.76 95.19,-233.7"/>
<text text-anchor="middle" x="65.59" y="-219.68" font-family="Courier,monospace" font-size="14.00">3710d7f</text>
</a>
</g>
</g>
<!-- 98979753fffee1419374ba30dda161f649493ae1 -->
<g id="node7" class="node">
<title>98979753fffee1419374ba30dda161f649493ae1</title>
<g id="a_node7"><a xlink:title="author: First Last &lt;first.last@mail.com&gt;&#10;Wed Jan 01 17:00:00 2025 +0100&#10;committer: Nom Prenom &lt;nom.prenom@mail.com&gt;&#10;Wed Jan 01 17:00:00 2025 +0100&#10;&#10;C6">
<polygon fill="#cdad00" stroke="#cdad00" points="154.19,-179.76 95,-179.76 95,-161.82 154.19,-161.82 154.19,-179.76"/>
<text text-anchor="middle" x="124.59" y="-165.74" font-family="Courier,monospace" font-size="14.00">9897975</text>
</a>
</g>
</g>
<!-- 3710d7f3d17ead7675736d08234fdd673a23e929&#45;&gt;98979753fffee1419374ba30dda161f649493ae1 -->
<g id="edge3" class="edge">
<title>3710d7f3d17ead7675736d08234fdd673a23e929&#45;&gt;98979753fffee1419374ba30dda161f649493ae1</title>
<path fill="none" stroke="#1a1a1a" d="M75.07,-215.38C84.68,-206.93 99.64,-193.76 110.61,-184.1"/>
<polygon fill="#1a1a1a" stroke="#1a1a1a" points="111.6,-185.56 114.2,-180.94 109.29,-182.93 111.6,-185.56"/>
</g>
<!-- 4715818fc7ff0e7a52eec2de5fe0b0376d9b72de -->
<g id="node4" class="node">
<title>4715818fc7ff0e7a52eec2de5fe0b0376d9b72de</title>
<g id="a_node4"><a xlink:title="author: Elena Coder &lt;elena.coder@mail.com&gt;&#10;Wed Jan 01 15:00:00 2025 +0100&#10;committer: Elena Coder &lt;elena.coder@mail.com&gt;&#10;Wed Jan 01 15:00:00 2025 +0100&#10;&#10;C10">
<polygon fill="darkorange" stroke="darkorange" points="308.19,-233.7 249,-233.7 249,-215.76 308.19,-215.76 308.19,-233.7"/>
<text text-anchor="middle" x="278.6" y="-219.68" font-family="Courier,monospace" font-size="14.00">4715818</text>
</a>
</g>
</g>
<!-- ec184df101d6a46c186671c42bb4707cd76f2323 -->
<g id="node15" class="node">
<title>ec184df101d6a46c186671c42bb4707cd76f2323</title>
<g id="a_node15"><a xlink:title="author: Elena Coder &lt;elena.coder@mail.com&gt;&#10;Wed Jan 01 14:00:00 2025 +0100&#10;committer: Elena Coder &lt;elena.coder@mail.com&gt;&#10;Wed Jan 01 14:00:00 2025 +0100&#10;&#10;C4">
<polygon fill="darkorange" stroke="darkorange" points="308.19,-179.76 249,-179.76 249,-161.82 308.19,-161.82 308.19,-179.76"/>
<text text-anchor="middle" x="278.6" y="-165.74" font-family="Courier,monospace" font-size="14.00">ec184df</text>
</a>
</g>
</g>
<!-- 4715818fc7ff0e7a52eec2de5fe0b0376d9b72de&#45;&gt;ec184df101d6a46c186671c42bb4707cd76f2323 -->
<g id="edge4" class="edge">
<title>4715818fc7ff0e7a52eec2de5fe0b0376d9b72de&#45;&gt;ec184df101d6a46c186671c42bb4707cd76f2323</title>
<path fill="none" stroke="#1a1a1a" d="M278.6,-215.61C278.6,-207.81 278.6,-195.83 278.6,-186.37"/>
<polygon fill="#1a1a1a" stroke="#1a1a1a" points="280.35,-186.53 278.6,-181.53 276.85,-186.53 280.35,-186.53"/>
</g>
<!-- 70f6562bbe1b564d4fbbe1ba3b3918d307d001d8 -->
<g id="node5" class="node">
<title>70f6562bbe1b564d4fbbe1ba3b3918d307d001d8</title>
<g id="a_node5"><a xlink:title="author: Elena Coder &lt;elena.coder@mail.com&gt;&#10;Wed Jan 01 14:00:00 2025 +0100&#10;committer: Nom Prenom &lt;nom.prenom@mail.com&gt;&#10;Wed Jan 01 18:00:00 2025 +0100&#10;&#10;C4">
<polygon fill="#cdad00" stroke="#cdad00" points="95.19,-287.64 36,-287.64 36,-269.7 95.19,-269.7 95.19,-287.64"/>
<text text-anchor="middle" x="65.59" y="-273.62" font-family="Courier,monospace" font-size="14.00">70f6562</text>
</a>
</g>
</g>
<!-- 70f6562bbe1b564d4fbbe1ba3b3918d307d001d8&#45;&gt;3710d7f3d17ead7675736d08234fdd673a23e929 -->
<g id="edge5" class="edge">
<title>70f6562bbe1b564d4fbbe1ba3b3918d307d001d8&#45;&gt;3710d7f3d17ead7675736d08234fdd673a23e929</title>
<path fill="none" stroke="#1a1a1a" d="M65.59,-269.55C65.59,-261.75 65.59,-249.77 65.59,-240.31"/>
<polygon fill="#1a1a1a" stroke="#1a1a1a" points="67.35,-240.47 65.6,-235.47 63.85,-240.47 67.35,-240.47"/>
</g>
<!-- 72756226e7a512fed936b9a70efba4d8706f3c9b -->
<g id="node6" class="node">
<title>72756226e7a512fed936b9a70efba4d8706f3c9b</title>
<g id="a_node6"><a xlink:title="author: First Last &lt;first.last@mail.com&gt;&#10;Wed Jan 01 16:00:00 2025 +0100&#10;committer: Nom Prenom &lt;nom.prenom@mail.com&gt;&#10;Wed Jan 01 16:00:00 2025 +0100&#10;&#10;C5">
<polygon fill="#cdad00" stroke="#cdad00" points="154.19,-125.82 95,-125.82 95,-107.88 154.19,-107.88 154.19,-125.82"/>
<text text-anchor="middle" x="124.59" y="-111.8" font-family="Courier,monospace" font-size="14.00">7275622</text>
</a>
</g>
</g>
<!-- 72756226e7a512fed936b9a70efba4d8706f3c9b&#45;&gt;e6416e56d31965d7c416f355bb5b3e511158e3d6 -->
<g id="edge6" class="edge">
<title>72756226e7a512fed936b9a70efba4d8706f3c9b&#45;&gt;e6416e56d31965d7c416f355bb5b3e511158e3d6</title>
<path fill="none" stroke="#1a1a1a" d="M130.53,-107.73C136.52,-99.55 145.86,-86.78 152.92,-77.13"/>
<polygon fill="#1a1a1a" stroke="#1a1a1a" points="154.14,-78.43 155.68,-73.36 151.32,-76.36 154.14,-78.43"/>
</g>
<!-- 98979753fffee1419374ba30dda161f649493ae1&#45;&gt;72756226e7a512fed936b9a70efba4d8706f3c9b -->
<g id="edge7" class="edge">
<title>98979753fffee1419374ba30dda161f649493ae1&#45;&gt;72756226e7a512fed936b9a70efba4d8706f3c9b</title>
<path fill="none" stroke="#1a1a1a" d="M124.59,-161.67C124.59,-153.87 124.59,-141.89 124.59,-132.43"/>
<polygon fill="#1a1a1a" stroke="#1a1a1a" points="126.35,-132.59 124.6,-127.59 122.85,-132.59 126.35,-132.59"/>
</g>
<!-- HEAD -->
<g id="node8" class="node">
<title>HEAD</title>
<g id="a_node8"><a xlink:title="client">
<polygon fill="cornflowerblue" stroke="cornflowerblue" points="46.81,-557.34 12.38,-557.34 12.38,-539.4 46.81,-539.4 46.81,-557.34"/>
<text text-anchor="middle" x="29.59" y="-543.32" font-family="Courier,monospace" font-size="14.00">HEAD</text>
</a>
</g>
</g>
<!-- local&#45;branch&#45;client -->
<g id="node12" class="node">
<title>local&#45;branch&#45;client</title>
<g id="a_node12"><a xlink:title="&#45;&gt; None">
<polygon fill="forestgreen" stroke="forestgreen" points="55.06,-503.4 4.12,-503.4 4.12,-485.46 55.06,-485.46 55.06,-503.4"/>
<text text-anchor="middle" x="29.59" y="-489.38" font-family="Courier,monospace" font-size="14.00">client</text>
</a>
</g>
</g>
<!-- HEAD&#45;&gt;local&#45;branch&#45;client -->
<g id="edge8" class="edge">
<title>HEAD&#45;&gt;local&#45;branch&#45;client</title>
<path fill="none" stroke="#1a1a1a" d="M29.59,-539.25C29.59,-531.45 29.59,-519.47 29.59,-510.01"/>
<polygon fill="#1a1a1a" stroke="#1a1a1a" points="31.35,-510.17 29.6,-505.17 27.85,-510.17 31.35,-510.17"/>
</g>
<!-- a0e8783a03f89b1595bc08a58c9dea4712aa2fb6&#45;&gt;103ff1e7c2d3f1262a3438a7dd6164036312f7f6 -->
<g id="edge9" class="edge">
<title>a0e8783a03f89b1595bc08a58c9dea4712aa2fb6&#45;&gt;103ff1e7c2d3f1262a3438a7dd6164036312f7f6</title>
<path fill="none" stroke="#1a1a1a" d="M201.59,-161.67C201.59,-153.87 201.59,-141.89 201.59,-132.43"/>
<polygon fill="#1a1a1a" stroke="#1a1a1a" points="203.35,-132.59 201.6,-127.59 199.85,-132.59 203.35,-132.59"/>
</g>
<!-- a7ed42b4399c0da29032102063550c78da98c8e3 -->
<g id="node10" class="node">
<title>a7ed42b4399c0da29032102063550c78da98c8e3</title>
<g id="a_node10"><a xlink:title="author: Elena Coder &lt;elena.coder@mail.com&gt;&#10;Wed Jan 01 15:00:00 2025 +0100&#10;committer: Nom Prenom &lt;nom.prenom@mail.com&gt;&#10;Wed Jan 01 18:00:00 2025 +0100&#10;&#10;C10">
<polygon fill="#cdad00" stroke="#cdad00" points="95.19,-341.58 36,-341.58 36,-323.64 95.19,-323.64 95.19,-341.58"/>
<text text-anchor="middle" x="65.59" y="-327.56" font-family="Courier,monospace" font-size="14.00">a7ed42b</text>
</a>
</g>
</g>
<!-- a7ed42b4399c0da29032102063550c78da98c8e3&#45;&gt;70f6562bbe1b564d4fbbe1ba3b3918d307d001d8 -->
<g id="edge10" class="edge">
<title>a7ed42b4399c0da29032102063550c78da98c8e3&#45;&gt;70f6562bbe1b564d4fbbe1ba3b3918d307d001d8</title>
<path fill="none" stroke="#1a1a1a" d="M65.59,-323.49C65.59,-315.69 65.59,-303.71 65.59,-294.25"/>
<polygon fill="#1a1a1a" stroke="#1a1a1a" points="67.35,-294.41 65.6,-289.41 63.85,-294.41 67.35,-294.41"/>
</g>
<!-- c101bb1f442c19aa122c7f5d253710c3b34c91bb -->
<g id="node11" class="node">
<title>c101bb1f442c19aa122c7f5d253710c3b34c91bb</title>
<g id="a_node11"><a xlink:title="author: Marina Coder &lt;marina.coder@mail.com&gt;&#10;Wed Jan 01 12:00:00 2025 +0100&#10;committer: Nom Prenom &lt;nom.prenom@mail.com&gt;&#10;Wed Jan 01 19:00:00 2025 +0100&#10;&#10;C8">
<polygon fill="#cdad00" stroke="#cdad00" points="59.19,-395.52 0,-395.52 0,-377.58 59.19,-377.58 59.19,-395.52"/>
<text text-anchor="middle" x="29.59" y="-381.5" font-family="Courier,monospace" font-size="14.00">c101bb1</text>
</a>
</g>
</g>
<!-- c101bb1f442c19aa122c7f5d253710c3b34c91bb&#45;&gt;a7ed42b4399c0da29032102063550c78da98c8e3 -->
<g id="edge11" class="edge">
<title>c101bb1f442c19aa122c7f5d253710c3b34c91bb&#45;&gt;a7ed42b4399c0da29032102063550c78da98c8e3</title>
<path fill="none" stroke="#1a1a1a" d="M35.22,-377.43C40.84,-369.33 49.58,-356.71 56.25,-347.1"/>
<polygon fill="#1a1a1a" stroke="#1a1a1a" points="57.62,-348.19 59.03,-343.08 54.74,-346.2 57.62,-348.19"/>
</g>
<!-- f87a496d4aa9780a522d46a3165df676d4d5c6ff -->
<g id="node16" class="node">
<title>f87a496d4aa9780a522d46a3165df676d4d5c6ff</title>
<g id="a_node16"><a xlink:title="author: Marina Coder &lt;marina.coder@mail.com&gt;&#10;Wed Jan 01 13:00:00 2025 +0100&#10;committer: Nom Prenom &lt;nom.prenom@mail.com&gt;&#10;Wed Jan 01 19:00:00 2025 +0100&#10;&#10;C9">
<polygon fill="#cdad00" stroke="#cdad00" points="59.19,-449.46 0,-449.46 0,-431.52 59.19,-431.52 59.19,-449.46"/>
<text text-anchor="middle" x="29.59" y="-435.44" font-family="Courier,monospace" font-size="14.00">f87a496</text>
</a>
</g>
</g>
<!-- local&#45;branch&#45;client&#45;&gt;f87a496d4aa9780a522d46a3165df676d4d5c6ff -->
<g id="edge15" class="edge">
<title>local&#45;branch&#45;client&#45;&gt;f87a496d4aa9780a522d46a3165df676d4d5c6ff</title>
<path fill="none" stroke="#1a1a1a" d="M29.59,-485.31C29.59,-477.51 29.59,-465.53 29.59,-456.07"/>
<polygon fill="#1a1a1a" stroke="#1a1a1a" points="31.35,-456.23 29.6,-451.23 27.85,-456.23 31.35,-456.23"/>
</g>
<!-- dfaa4786078702fd10ee5f3f50038227dcf9e31b -->
<g id="node13" class="node">
<title>dfaa4786078702fd10ee5f3f50038227dcf9e31b</title>
<g id="a_node13"><a xlink:title="author: First Last &lt;first.last@mail.com&gt;&#10;Wed Jan 01 09:00:00 2025 +0100&#10;committer: Nom Prenom &lt;nom.prenom@mail.com&gt;&#10;Wed Jan 01 09:00:00 2025 +0100&#10;&#10;C1">
<polygon fill="#cdad00" stroke="#cdad00" points="192.19,-17.94 133,-17.94 133,0 192.19,0 192.19,-17.94"/>
<text text-anchor="middle" x="162.59" y="-3.92" font-family="Courier,monospace" font-size="14.00">dfaa478</text>
</a>
</g>
</g>
<!-- e6416e56d31965d7c416f355bb5b3e511158e3d6&#45;&gt;dfaa4786078702fd10ee5f3f50038227dcf9e31b -->
<g id="edge12" class="edge">
<title>e6416e56d31965d7c416f355bb5b3e511158e3d6&#45;&gt;dfaa4786078702fd10ee5f3f50038227dcf9e31b</title>
<path fill="none" stroke="#1a1a1a" d="M162.59,-53.79C162.59,-45.99 162.59,-34.01 162.59,-24.55"/>
<polygon fill="#1a1a1a" stroke="#1a1a1a" points="164.35,-24.71 162.6,-19.71 160.85,-24.71 164.35,-24.71"/>
</g>
<!-- ec184df101d6a46c186671c42bb4707cd76f2323&#45;&gt;103ff1e7c2d3f1262a3438a7dd6164036312f7f6 -->
<g id="edge13" class="edge">
<title>ec184df101d6a46c186671c42bb4707cd76f2323&#45;&gt;103ff1e7c2d3f1262a3438a7dd6164036312f7f6</title>
<path fill="none" stroke="#1a1a1a" d="M266.22,-161.44C253.54,-152.89 233.69,-139.5 219.33,-129.81"/>
<polygon fill="#1a1a1a" stroke="#1a1a1a" points="220.31,-128.37 215.19,-127.02 218.36,-131.27 220.31,-128.37"/>
</g>
<!-- f87a496d4aa9780a522d46a3165df676d4d5c6ff&#45;&gt;c101bb1f442c19aa122c7f5d253710c3b34c91bb -->
<g id="edge14" class="edge">
<title>f87a496d4aa9780a522d46a3165df676d4d5c6ff&#45;&gt;c101bb1f442c19aa122c7f5d253710c3b34c91bb</title>
<path fill="none" stroke="#1a1a1a" d="M29.59,-431.37C29.59,-423.57 29.59,-411.59 29.59,-402.13"/>
<polygon fill="#1a1a1a" stroke="#1a1a1a" points="31.35,-402.29 29.6,-397.29 27.85,-402.29 31.35,-402.29"/>
</g>
<!-- local&#45;branch&#45;main -->
<g id="node17" class="node">
<title>local&#45;branch&#45;main</title>
<g id="a_node17"><a xlink:title="&#45;&gt; None">
<polygon fill="forestgreen" stroke="forestgreen" points="147.81,-233.7 113.38,-233.7 113.38,-215.76 147.81,-215.76 147.81,-233.7"/>
<text text-anchor="middle" x="130.59" y="-219.68" font-family="Courier,monospace" font-size="14.00">main</text>
</a>
</g>
</g>
<!-- local&#45;branch&#45;main&#45;&gt;98979753fffee1419374ba30dda161f649493ae1 -->
<g id="edge16" class="edge">
<title>local&#45;branch&#45;main&#45;&gt;98979753fffee1419374ba30dda161f649493ae1</title>
<path fill="none" stroke="#1a1a1a" d="M129.66,-215.61C128.76,-207.81 127.37,-195.83 126.28,-186.37"/>
<polygon fill="#1a1a1a" stroke="#1a1a1a" points="128.03,-186.29 125.72,-181.52 124.55,-186.69 128.03,-186.29"/>
</g>
<!-- local&#45;branch&#45;server -->
<g id="node18" class="node">
<title>local&#45;branch&#45;server</title>
<g id="a_node18"><a xlink:title="&#45;&gt; None">
<polygon fill="forestgreen" stroke="forestgreen" points="128.06,-395.52 77.12,-395.52 77.12,-377.58 128.06,-377.58 128.06,-395.52"/>
<text text-anchor="middle" x="102.59" y="-381.5" font-family="Courier,monospace" font-size="14.00">server</text>
</a>
</g>
</g>
<!-- local&#45;branch&#45;server&#45;&gt;a7ed42b4399c0da29032102063550c78da98c8e3 -->
<g id="edge17" class="edge">
<title>local&#45;branch&#45;server&#45;&gt;a7ed42b4399c0da29032102063550c78da98c8e3</title>
<path fill="none" stroke="#1a1a1a" d="M96.81,-377.43C91.04,-369.33 82.05,-356.71 75.2,-347.1"/>
<polygon fill="#1a1a1a" stroke="#1a1a1a" points="76.66,-346.13 72.34,-343.07 73.81,-348.16 76.66,-346.13"/>
</g>
</g>
</svg>
