<?xml version="1.0" encoding="UTF-8" standalone="no"?>
<!DOCTYPE svg PUBLIC "-//W3C//DTD SVG 1.1//EN"
 "http://www.w3.org/Graphics/SVG/1.1/DTD/svg11.dtd">
<!-- Generated by graphviz version 12.1.0 (20240811.2233)
 -->
<!-- Pages: 1 -->
<svg width="313pt" height="565pt"
 viewBox="0.00 0.00 313.07 565.34" xmlns="http://www.w3.org/2000/svg" xmlns:xlink="http://www.w3.org/1999/xlink">
<g id="graph0" class="graph" transform="scale(1 1) rotate(0) translate(4 561.34)">
<polygon fill="white" stroke="none" points="-4,4 -4,-561.34 309.07,-561.34 309.07,4 -4,4"/>
<!-- 19e76365716c32e430d884da1125c0446a272d0b -->
<g id="node1" class="node">
<title>19e76365716c32e430d884da1125c0446a272d0b</title>
<g id="a_node1"><a xlink:title="author: First Last &lt;first.last@mail.com&gt;&#10;Wed Jan 01 14:00:00 2025 +0100&#10;committer: Nom Prenom &lt;nom.prenom@mail.com&gt;&#10;Wed Jan 01 18:00:00 2025 +0100&#10;&#10;C4">
<polygon fill="#cdad00" stroke="#cdad00" points="272.19,-287.64 213,-287.64 213,-269.7 272.19,-269.7 272.19,-287.64"/>
<text text-anchor="middle" x="242.59" y="-273.62" font-family="Courier,monospace" font-size="14.00">19e7636</text>
</a>
</g>
</g>
<!-- c5d25e41be82db8cff3ec7c3e186da7bc2efd5a6 -->
<g id="node8" class="node">
<title>c5d25e41be82db8cff3ec7c3e186da7bc2efd5a6</title>
<g id="a_node8"><a xlink:title="author: First Last &lt;first.last@mail.com&gt;&#10;Wed Jan 01 11:00:00 2025 +0100&#10;committer: Nom Prenom &lt;nom.prenom@mail.com&gt;&#10;Wed Jan 01 18:00:00 2025 +0100&#10;&#10;C3">
<polygon fill="#cdad00" stroke="#cdad00" points="272.19,-233.7 213,-233.7 213,-215.76 272.19,-215.76 272.19,-233.7"/>
<text text-anchor="middle" x="242.59" y="-219.68" font-family="Courier,monospace" font-size="14.00">c5d25e4</text>
</a>
</g>
</g>
<!-- 19e76365716c32e430d884da1125c0446a272d0b&#45;&gt;c5d25e41be82db8cff3ec7c3e186da7bc2efd5a6 -->
<g id="edge1" class="edge">
<title>19e76365716c32e430d884da1125c0446a272d0b&#45;&gt;c5d25e41be82db8cff3ec7c3e186da7bc2efd5a6</title>
<path fill="none" stroke="#1a1a1a" d="M242.59,-269.55C242.59,-261.75 242.59,-249.77 242.59,-240.31"/>
<polygon fill="#1a1a1a" stroke="#1a1a1a" points="244.35,-240.47 242.6,-235.47 240.85,-240.47 244.35,-240.47"/>
</g>
<!-- 458a4c1c34c004750245096ad75a6a73acddbeca -->
<g id="node2" class="node">
<title>458a4c1c34c004750245096ad75a6a73acddbeca</title>
<g id="a_node2"><a xlink:title="author: First Last &lt;first.last@mail.com&gt;&#10;Wed Jan 01 12:00:00 2025 +0100&#10;committer: Nom Prenom &lt;nom.prenom@mail.com&gt;&#10;Wed Jan 01 12:00:00 2025 +0100&#10;&#10;C8">
<polygon fill="darkorange" stroke="darkorange" points="59.19,-179.76 0,-179.76 0,-161.82 59.19,-161.82 59.19,-179.76"/>
<text text-anchor="middle" x="29.59" y="-165.74" font-family="Courier,monospace" font-size="14.00">458a4c1</text>
</a>
</g>
</g>
<!-- 7c2fd5d1d1b7cc6a552412e83c1a21a8ec3056a3 -->
<g id="node5" class="node">
<title>7c2fd5d1d1b7cc6a552412e83c1a21a8ec3056a3</title>
<g id="a_node5"><a xlink:title="author: First Last &lt;first.last@mail.com&gt;&#10;Wed Jan 01 11:00:00 2025 +0100&#10;committer: Nom Prenom &lt;nom.prenom@mail.com&gt;&#10;Wed Jan 01 11:00:00 2025 +0100&#10;&#10;C3">
<polygon fill="darkorange" stroke="darkorange" points="136.19,-125.82 77,-125.82 77,-107.88 136.19,-107.88 136.19,-125.82"/>
<text text-anchor="middle" x="106.59" y="-111.8" font-family="Courier,monospace" font-size="14.00">7c2fd5d</text>
</a>
</g>
</g>
<!-- 458a4c1c34c004750245096ad75a6a73acddbeca&#45;&gt;7c2fd5d1d1b7cc6a552412e83c1a21a8ec3056a3 -->
<g id="edge2" class="edge">
<title>458a4c1c34c004750245096ad75a6a73acddbeca&#45;&gt;7c2fd5d1d1b7cc6a552412e83c1a21a8ec3056a3</title>
<path fill="none" stroke="#1a1a1a" d="M41.97,-161.44C54.65,-152.89 74.5,-139.5 88.86,-129.81"/>
<polygon fill="#1a1a1a" stroke="#1a1a1a" points="89.83,-131.27 93,-127.02 87.88,-128.37 89.83,-131.27"/>
</g>
<!-- 72756226e7a512fed936b9a70efba4d8706f3c9b -->
<g id="node3" class="node">
<title>72756226e7a512fed936b9a70efba4d8706f3c9b</title>
<g id="a_node3"><a xlink:title="author: First Last &lt;first.last@mail.com&gt;&#10;Wed Jan 01 16:00:00 2025 +0100&#10;committer: Nom Prenom &lt;nom.prenom@mail.com&gt;&#10;Wed Jan 01 16:00:00 2025 +0100&#10;&#10;C5">
<polygon fill="#cdad00" stroke="#cdad00" points="213.19,-125.82 154,-125.82 154,-107.88 213.19,-107.88 213.19,-125.82"/>
<text text-anchor="middle" x="183.59" y="-111.8" font-family="Courier,monospace" font-size="14.00">7275622</text>
</a>
</g>
</g>
<!-- e6416e56d31965d7c416f355bb5b3e511158e3d6 -->
<g id="node14" class="node">
<title>e6416e56d31965d7c416f355bb5b3e511158e3d6</title>
<g id="a_node14"><a xlink:title="author: First Last &lt;first.last@mail.com&gt;&#10;Wed Jan 01 10:00:00 2025 +0100&#10;committer: Nom Prenom &lt;nom.prenom@mail.com&gt;&#10;Wed Jan 01 10:00:00 2025 +0100&#10;&#10;C2">
<polygon fill="#cdad00" stroke="#cdad00" points="174.19,-71.88 115,-71.88 115,-53.94 174.19,-53.94 174.19,-71.88"/>
<text text-anchor="middle" x="144.59" y="-57.86" font-family="Courier,monospace" font-size="14.00">e6416e5</text>
</a>
</g>
</g>
<!-- 72756226e7a512fed936b9a70efba4d8706f3c9b&#45;&gt;e6416e56d31965d7c416f355bb5b3e511158e3d6 -->
<g id="edge3" class="edge">
<title>72756226e7a512fed936b9a70efba4d8706f3c9b&#45;&gt;e6416e56d31965d7c416f355bb5b3e511158e3d6</title>
<path fill="none" stroke="#1a1a1a" d="M177.5,-107.73C171.36,-99.55 161.77,-86.78 154.52,-77.13"/>
<polygon fill="#1a1a1a" stroke="#1a1a1a" points="156.09,-76.3 151.68,-73.35 153.29,-78.4 156.09,-76.3"/>
</g>
<!-- 747abfcb63e85d7f947ad088cc6780f0d0abc9ea -->
<g id="node4" class="node">
<title>747abfcb63e85d7f947ad088cc6780f0d0abc9ea</title>
<g id="a_node4"><a xlink:title="author: First Last &lt;first.last@mail.com&gt;&#10;Wed Jan 01 15:00:00 2025 +0100&#10;committer: Nom Prenom &lt;nom.prenom@mail.com&gt;&#10;Wed Jan 01 18:00:00 2025 +0100&#10;&#10;C10">
<polygon fill="#cdad00" stroke="#cdad00" points="272.19,-341.58 213,-341.58 213,-323.64 272.19,-323.64 272.19,-341.58"/>
<text text-anchor="middle" x="242.59" y="-327.56" font-family="Courier,monospace" font-size="14.00">747abfc</text>
</a>
</g>
</g>
<!-- 747abfcb63e85d7f947ad088cc6780f0d0abc9ea&#45;&gt;19e76365716c32e430d884da1125c0446a272d0b -->
<g id="edge4" class="edge">
<title>747abfcb63e85d7f947ad088cc6780f0d0abc9ea&#45;&gt;19e76365716c32e430d884da1125c0446a272d0b</title>
<path fill="none" stroke="#1a1a1a" d="M242.59,-323.49C242.59,-315.69 242.59,-303.71 242.59,-294.25"/>
<polygon fill="#1a1a1a" stroke="#1a1a1a" points="244.35,-294.41 242.6,-289.41 240.85,-294.41 244.35,-294.41"/>
</g>
<!-- 7c2fd5d1d1b7cc6a552412e83c1a21a8ec3056a3&#45;&gt;e6416e56d31965d7c416f355bb5b3e511158e3d6 -->
<g id="edge5" class="edge">
<title>7c2fd5d1d1b7cc6a552412e83c1a21a8ec3056a3&#45;&gt;e6416e56d31965d7c416f355bb5b3e511158e3d6</title>
<path fill="none" stroke="#1a1a1a" d="M112.53,-107.73C118.52,-99.55 127.86,-86.78 134.92,-77.13"/>
<polygon fill="#1a1a1a" stroke="#1a1a1a" points="136.14,-78.43 137.68,-73.36 133.32,-76.36 136.14,-78.43"/>
</g>
<!-- 98979753fffee1419374ba30dda161f649493ae1 -->
<g id="node6" class="node">
<title>98979753fffee1419374ba30dda161f649493ae1</title>
<g id="a_node6"><a xlink:title="author: First Last &lt;first.last@mail.com&gt;&#10;Wed Jan 01 17:00:00 2025 +0100&#10;committer: Nom Prenom &lt;nom.prenom@mail.com&gt;&#10;Wed Jan 01 17:00:00 2025 +0100&#10;&#10;C6">
<polygon fill="#cdad00" stroke="#cdad00" points="213.19,-179.76 154,-179.76 154,-161.82 213.19,-161.82 213.19,-179.76"/>
<text text-anchor="middle" x="183.59" y="-165.74" font-family="Courier,monospace" font-size="14.00">9897975</text>
</a>
</g>
</g>
<!-- 98979753fffee1419374ba30dda161f649493ae1&#45;&gt;72756226e7a512fed936b9a70efba4d8706f3c9b -->
<g id="edge6" class="edge">
<title>98979753fffee1419374ba30dda161f649493ae1&#45;&gt;72756226e7a512fed936b9a70efba4d8706f3c9b</title>
<path fill="none" stroke="#1a1a1a" d="M183.59,-161.67C183.59,-153.87 183.59,-141.89 183.59,-132.43"/>
<polygon fill="#1a1a1a" stroke="#1a1a1a" points="185.35,-132.59 183.6,-127.59 181.85,-132.59 185.35,-132.59"/>
</g>
<!-- HEAD -->
<g id="node7" class="node">
<title>HEAD</title>
<g id="a_node7"><a xlink:title="client">
<polygon fill="cornflowerblue" stroke="cornflowerblue" points="223.81,-557.34 189.38,-557.34 189.38,-539.4 223.81,-539.4 223.81,-557.34"/>
<text text-anchor="middle" x="206.59" y="-543.32" font-family="Courier,monospace" font-size="14.00">HEAD</text>
</a>
</g>
</g>
<!-- local&#45;branch&#45;client -->
<g id="node10" class="node">
<title>local&#45;branch&#45;client</title>
<g id="a_node10"><a xlink:title="&#45;&gt; None">
<polygon fill="forestgreen" stroke="forestgreen" points="232.06,-503.4 181.12,-503.4 181.12,-485.46 232.06,-485.46 232.06,-503.4"/>
<text text-anchor="middle" x="206.59" y="-489.38" font-family="Courier,monospace" font-size="14.00">client</text>
</a>
</g>
</g>
<!-- HEAD&#45;&gt;local&#45;branch&#45;client -->
<g id="edge7" class="edge">
<title>HEAD&#45;&gt;local&#45;branch&#45;client</title>
<path fill="none" stroke="#1a1a1a" d="M206.59,-539.25C206.59,-531.45 206.59,-519.47 206.59,-510.01"/>
<polygon fill="#1a1a1a" stroke="#1a1a1a" points="208.35,-510.17 206.6,-505.17 204.85,-510.17 208.35,-510.17"/>
</g>
<!-- c5d25e41be82db8cff3ec7c3e186da7bc2efd5a6&#45;&gt;98979753fffee1419374ba30dda161f649493ae1 -->
<g id="edge8" class="edge">
<title>c5d25e41be82db8cff3ec7c3e186da7bc2efd5a6&#45;&gt;98979753fffee1419374ba30dda161f649493ae1</title>
<path fill="none" stroke="#1a1a1a" d="M233.12,-215.38C223.51,-206.93 208.55,-193.76 197.58,-184.1"/>
<polygon fill="#1a1a1a" stroke="#1a1a1a" points="198.9,-182.93 193.99,-180.94 196.59,-185.56 198.9,-182.93"/>
</g>
<!-- c9dfc9d3110fc5e08cc5bd4802610d54e4d6ae38 -->
<g id="node9" class="node">
<title>c9dfc9d3110fc5e08cc5bd4802610d54e4d6ae38</title>
<g id="a_node9"><a xlink:title="author: First Last &lt;first.last@mail.com&gt;&#10;Wed Jan 01 15:00:00 2025 +0100&#10;committer: Nom Prenom &lt;nom.prenom@mail.com&gt;&#10;Wed Jan 01 15:00:00 2025 +0100&#10;&#10;C10">
<polygon fill="darkorange" stroke="darkorange" points="136.19,-233.7 77,-233.7 77,-215.76 136.19,-215.76 136.19,-233.7"/>
<text text-anchor="middle" x="106.59" y="-219.68" font-family="Courier,monospace" font-size="14.00">c9dfc9d</text>
</a>
</g>
</g>
<!-- eccd99c6e011902225005bdc8b3ede32a47b38a1 -->
<g id="node16" class="node">
<title>eccd99c6e011902225005bdc8b3ede32a47b38a1</title>
<g id="a_node16"><a xlink:title="author: First Last &lt;first.last@mail.com&gt;&#10;Wed Jan 01 14:00:00 2025 +0100&#10;committer: Nom Prenom &lt;nom.prenom@mail.com&gt;&#10;Wed Jan 01 14:00:00 2025 +0100&#10;&#10;C4">
<polygon fill="darkorange" stroke="darkorange" points="136.19,-179.76 77,-179.76 77,-161.82 136.19,-161.82 136.19,-179.76"/>
<text text-anchor="middle" x="106.59" y="-165.74" font-family="Courier,monospace" font-size="14.00">eccd99c</text>
</a>
</g>
</g>
<!-- c9dfc9d3110fc5e08cc5bd4802610d54e4d6ae38&#45;&gt;eccd99c6e011902225005bdc8b3ede32a47b38a1 -->
<g id="edge9" class="edge">
<title>c9dfc9d3110fc5e08cc5bd4802610d54e4d6ae38&#45;&gt;eccd99c6e011902225005bdc8b3ede32a47b38a1</title>
<path fill="none" stroke="#1a1a1a" d="M106.59,-215.61C106.59,-207.81 106.59,-195.83 106.59,-186.37"/>
<polygon fill="#1a1a1a" stroke="#1a1a1a" points="108.35,-186.53 106.6,-181.53 104.85,-186.53 108.35,-186.53"/>
</g>
<!-- e5e7607b8cb1c58507aaf3b9c14acc6e8a18af08 -->
<g id="node13" class="node">
<title>e5e7607b8cb1c58507aaf3b9c14acc6e8a18af08</title>
<g id="a_node13"><a xlink:title="author: First Last &lt;first.last@mail.com&gt;&#10;Wed Jan 01 13:00:00 2025 +0100&#10;committer: Nom Prenom &lt;nom.prenom@mail.com&gt;&#10;Wed Jan 01 19:00:00 2025 +0100&#10;&#10;C9">
<polygon fill="#cdad00" stroke="#cdad00" points="236.19,-449.46 177,-449.46 177,-431.52 236.19,-431.52 236.19,-449.46"/>
<text text-anchor="middle" x="206.59" y="-435.44" font-family="Courier,monospace" font-size="14.00">e5e7607</text>
</a>
</g>
</g>
<!-- local&#45;branch&#45;client&#45;&gt;e5e7607b8cb1c58507aaf3b9c14acc6e8a18af08 -->
<g id="edge15" class="edge">
<title>local&#45;branch&#45;client&#45;&gt;e5e7607b8cb1c58507aaf3b9c14acc6e8a18af08</title>
<path fill="none" stroke="#1a1a1a" d="M206.59,-485.31C206.59,-477.51 206.59,-465.53 206.59,-456.07"/>
<polygon fill="#1a1a1a" stroke="#1a1a1a" points="208.35,-456.23 206.6,-451.23 204.85,-456.23 208.35,-456.23"/>
</g>
<!-- dfaa4786078702fd10ee5f3f50038227dcf9e31b -->
<g id="node11" class="node">
<title>dfaa4786078702fd10ee5f3f50038227dcf9e31b</title>
<g id="a_node11"><a xlink:title="author: First Last &lt;first.last@mail.com&gt;&#10;Wed Jan 01 09:00:00 2025 +0100&#10;committer: Nom Prenom &lt;nom.prenom@mail.com&gt;&#10;Wed Jan 01 09:00:00 2025 +0100&#10;&#10;C1">
<polygon fill="#cdad00" stroke="#cdad00" points="174.19,-17.94 115,-17.94 115,0 174.19,0 174.19,-17.94"/>
<text text-anchor="middle" x="144.59" y="-3.92" font-family="Courier,monospace" font-size="14.00">dfaa478</text>
</a>
</g>
</g>
<!-- e4fc5c69f4b3efc9c73044fd4d824102dd08e61c -->
<g id="node12" class="node">
<title>e4fc5c69f4b3efc9c73044fd4d824102dd08e61c</title>
<g id="a_node12"><a xlink:title="author: First Last &lt;first.last@mail.com&gt;&#10;Wed Jan 01 12:00:00 2025 +0100&#10;committer: Nom Prenom &lt;nom.prenom@mail.com&gt;&#10;Wed Jan 01 19:00:00 2025 +0100&#10;&#10;C8">
<polygon fill="#cdad00" stroke="#cdad00" points="236.19,-395.52 177,-395.52 177,-377.58 236.19,-377.58 236.19,-395.52"/>
<text text-anchor="middle" x="206.59" y="-381.5" font-family="Courier,monospace" font-size="14.00">e4fc5c6</text>
</a>
</g>
</g>
<!-- e4fc5c69f4b3efc9c73044fd4d824102dd08e61c&#45;&gt;747abfcb63e85d7f947ad088cc6780f0d0abc9ea -->
<g id="edge10" class="edge">
<title>e4fc5c69f4b3efc9c73044fd4d824102dd08e61c&#45;&gt;747abfcb63e85d7f947ad088cc6780f0d0abc9ea</title>
<path fill="none" stroke="#1a1a1a" d="M212.22,-377.43C217.84,-369.33 226.58,-356.71 233.25,-347.1"/>
<polygon fill="#1a1a1a" stroke="#1a1a1a" points="234.62,-348.19 236.03,-343.08 231.74,-346.2 234.62,-348.19"/>
</g>
<!-- e5e7607b8cb1c58507aaf3b9c14acc6e8a18af08&#45;&gt;e4fc5c69f4b3efc9c73044fd4d824102dd08e61c -->
<g id="edge11" class="edge">
<title>e5e7607b8cb1c58507aaf3b9c14acc6e8a18af08&#45;&gt;e4fc5c69f4b3efc9c73044fd4d824102dd08e61c</title>
<path fill="none" stroke="#1a1a1a" d="M206.59,-431.37C206.59,-423.57 206.59,-411.59 206.59,-402.13"/>
<polygon fill="#1a1a1a" stroke="#1a1a1a" points="208.35,-402.29 206.6,-397.29 204.85,-402.29 208.35,-402.29"/>
</g>
<!-- e6416e56d31965d7c416f355bb5b3e511158e3d6&#45;&gt;dfaa4786078702fd10ee5f3f50038227dcf9e31b -->
<g id="edge12" class="edge">
<title>e6416e56d31965d7c416f355bb5b3e511158e3d6&#45;&gt;dfaa4786078702fd10ee5f3f50038227dcf9e31b</title>
<path fill="none" stroke="#1a1a1a" d="M144.59,-53.79C144.59,-45.99 144.59,-34.01 144.59,-24.55"/>
<polygon fill="#1a1a1a" stroke="#1a1a1a" points="146.35,-24.71 144.6,-19.71 142.85,-24.71 146.35,-24.71"/>
</g>
<!-- e80a5d52a8bbc6b16e90a1fdb24b6a829eb1be24 -->
<g id="node15" class="node">
<title>e80a5d52a8bbc6b16e90a1fdb24b6a829eb1be24</title>
<g id="a_node15"><a xlink:title="author: First Last &lt;first.last@mail.com&gt;&#10;Wed Jan 01 13:00:00 2025 +0100&#10;committer: Nom Prenom &lt;nom.prenom@mail.com&gt;&#10;Wed Jan 01 13:00:00 2025 +0100&#10;&#10;C9">
<polygon fill="darkorange" stroke="darkorange" points="59.19,-233.7 0,-233.7 0,-215.76 59.19,-215.76 59.19,-233.7"/>
<text text-anchor="middle" x="29.59" y="-219.68" font-family="Courier,monospace" font-size="14.00">e80a5d5</text>
</a>
</g>
</g>
<!-- e80a5d52a8bbc6b16e90a1fdb24b6a829eb1be24&#45;&gt;458a4c1c34c004750245096ad75a6a73acddbeca -->
<g id="edge13" class="edge">
<title>e80a5d52a8bbc6b16e90a1fdb24b6a829eb1be24&#45;&gt;458a4c1c34c004750245096ad75a6a73acddbeca</title>
<path fill="none" stroke="#1a1a1a" d="M29.59,-215.61C29.59,-207.81 29.59,-195.83 29.59,-186.37"/>
<polygon fill="#1a1a1a" stroke="#1a1a1a" points="31.35,-186.53 29.6,-181.53 27.85,-186.53 31.35,-186.53"/>
</g>
<!-- eccd99c6e011902225005bdc8b3ede32a47b38a1&#45;&gt;7c2fd5d1d1b7cc6a552412e83c1a21a8ec3056a3 -->
<g id="edge14" class="edge">
<title>eccd99c6e011902225005bdc8b3ede32a47b38a1&#45;&gt;7c2fd5d1d1b7cc6a552412e83c1a21a8ec3056a3</title>
<path fill="none" stroke="#1a1a1a" d="M106.59,-161.67C106.59,-153.87 106.59,-141.89 106.59,-132.43"/>
<polygon fill="#1a1a1a" stroke="#1a1a1a" points="108.35,-132.59 106.6,-127.59 104.85,-132.59 108.35,-132.59"/>
</g>
<!-- local&#45;branch&#45;main -->
<g id="node17" class="node">
<title>local&#45;branch&#45;main</title>
<g id="a_node17"><a xlink:title="&#45;&gt; None">
<polygon fill="forestgreen" stroke="forestgreen" points="194.81,-233.7 160.38,-233.7 160.38,-215.76 194.81,-215.76 194.81,-233.7"/>
<text text-anchor="middle" x="177.59" y="-219.68" font-family="Courier,monospace" font-size="14.00">main</text>
</a>
</g>
</g>
<!-- local&#45;branch&#45;main&#45;&gt;98979753fffee1419374ba30dda161f649493ae1 -->
<g id="edge16" class="edge">
<title>local&#45;branch&#45;main&#45;&gt;98979753fffee1419374ba30dda161f649493ae1</title>
<path fill="none" stroke="#1a1a1a" d="M178.53,-215.61C179.43,-207.81 180.82,-195.83 181.91,-186.37"/>
<polygon fill="#1a1a1a" stroke="#1a1a1a" points="183.64,-186.69 182.47,-181.52 180.16,-186.29 183.64,-186.69"/>
</g>
<!-- local&#45;branch&#45;server -->
<g id="node18" class="node">
<title>local&#45;branch&#45;server</title>
<g id="a_node18"><a xlink:title="&#45;&gt; None">
<polygon fill="forestgreen" stroke="forestgreen" points="305.07,-395.52 254.13,-395.52 254.13,-377.58 305.07,-377.58 305.07,-395.52"/>
<text text-anchor="middle" x="279.6" y="-381.5" font-family="Courier,monospace" font-size="14.00">server</text>
</a>
</g>
</g>
<!-- local&#45;branch&#45;server&#45;&gt;747abfcb63e85d7f947ad088cc6780f0d0abc9ea -->
<g id="edge17" class="edge">
<title>local&#45;branch&#45;server&#45;&gt;747abfcb63e85d7f947ad088cc6780f0d0abc9ea</title>
<path fill="none" stroke="#1a1a1a" d="M273.81,-377.43C268.04,-369.33 259.05,-356.71 252.2,-347.1"/>
<polygon fill="#1a1a1a" stroke="#1a1a1a" points="253.66,-346.13 249.34,-343.07 250.81,-348.16 253.66,-346.13"/>
</g>
</g>
</svg>
