<?xml version="1.0" encoding="UTF-8" standalone="no"?>
<!DOCTYPE svg PUBLIC "-//W3C//DTD SVG 1.1//EN"
 "http://www.w3.org/Graphics/SVG/1.1/DTD/svg11.dtd">
<!-- Generated by graphviz version 12.1.0 (20240811.2233)
 -->
<!-- Pages: 1 -->
<svg width="42pt" height="350pt"
 viewBox="0.00 0.00 42.44 349.58" xmlns="http://www.w3.org/2000/svg" xmlns:xlink="http://www.w3.org/1999/xlink">
<g id="graph0" class="graph" transform="scale(1 1) rotate(0) translate(4 345.58)">
<polygon fill="white" stroke="none" points="-4,4 -4,-345.58 38.44,-345.58 38.44,4 -4,4"/>
<!-- 8eca2b1c4353bcf2951061bbb7613ee92322a84d -->
<g id="node1" class="node">
<title>8eca2b1c4353bcf2951061bbb7613ee92322a84d</title>
<g id="a_node1"><a xlink:title="sha: 8eca2b1c4353bcf2951061bbb7613ee92322a84d&#10;&#10;author: Elena Coder &lt;elena.coder@mail.com&gt;&#10;Wed Jan 01 09:00:00 2025 +0100&#10;committer: Elena Coder &lt;elena.coder@mail.com&gt;&#10;Wed Jan 01 09:00:00 2025 +0100&#10;&#10;A">
<polygon fill="#cdad00" stroke="#cdad00" points="22.06,-17.94 12.38,-17.94 12.38,0 22.06,0 22.06,-17.94"/>
<text text-anchor="middle" x="17.22" y="-3.92" font-family="Courier,monospace" font-size="14.00">A</text>
</a>
</g>
</g>
<!-- ae481fe6194c1cc564022d8dff3767f86fa2a7fb -->
<g id="node2" class="node">
<title>ae481fe6194c1cc564022d8dff3767f86fa2a7fb</title>
<g id="a_node2"><a xlink:title="sha: ae481fe6194c1cc564022d8dff3767f86fa2a7fb&#10;&#10;author: Elena Coder &lt;elena.coder@mail.com&gt;&#10;Wed Jan 01 10:00:00 2025 +0100&#10;committer: Elena Coder &lt;elena.coder@mail.com&gt;&#10;Wed Jan 01 10:00:00 2025 +0100&#10;&#10;B">
<polygon fill="#cdad00" stroke="#cdad00" points="22.06,-71.88 12.38,-71.88 12.38,-53.94 22.06,-53.94 22.06,-71.88"/>
<text text-anchor="middle" x="17.22" y="-57.86" font-family="Courier,monospace" font-size="14.00">B</text>
</a>
</g>
</g>
<!-- ae481fe6194c1cc564022d8dff3767f86fa2a7fb&#45;&gt;8eca2b1c4353bcf2951061bbb7613ee92322a84d -->
<g id="edge5" class="edge">
<title>ae481fe6194c1cc564022d8dff3767f86fa2a7fb&#45;&gt;8eca2b1c4353bcf2951061bbb7613ee92322a84d</title>
<path fill="none" stroke="#1a1a1a" d="M17.22,-53.79C17.22,-45.99 17.22,-34.01 17.22,-24.55"/>
<polygon fill="#1a1a1a" stroke="#1a1a1a" points="18.97,-24.71 17.22,-19.71 15.47,-24.71 18.97,-24.71"/>
</g>
<!-- 02962dad541cf18b183b2bbd02610f8ce7075b82 -->
<g id="node3" class="node">
<title>02962dad541cf18b183b2bbd02610f8ce7075b82</title>
<g id="a_node3"><a xlink:title="sha: 02962dad541cf18b183b2bbd02610f8ce7075b82&#10;&#10;author: Elena Coder &lt;elena.coder@mail.com&gt;&#10;Wed Jan 01 11:00:00 2025 +0100&#10;committer: Elena Coder &lt;elena.coder@mail.com&gt;&#10;Wed Jan 01 11:00:00 2025 +0100&#10;&#10;C">
<polygon fill="#cdad00" stroke="#cdad00" points="22.06,-125.82 12.38,-125.82 12.38,-107.88 22.06,-107.88 22.06,-125.82"/>
<text text-anchor="middle" x="17.22" y="-111.8" font-family="Courier,monospace" font-size="14.00">C</text>
</a>
</g>
</g>
<!-- 02962dad541cf18b183b2bbd02610f8ce7075b82&#45;&gt;ae481fe6194c1cc564022d8dff3767f86fa2a7fb -->
<g id="edge1" class="edge">
<title>02962dad541cf18b183b2bbd02610f8ce7075b82&#45;&gt;ae481fe6194c1cc564022d8dff3767f86fa2a7fb</title>
<path fill="none" stroke="#1a1a1a" d="M17.22,-107.73C17.22,-99.93 17.22,-87.95 17.22,-78.49"/>
<polygon fill="#1a1a1a" stroke="#1a1a1a" points="18.97,-78.65 17.22,-73.65 15.47,-78.65 18.97,-78.65"/>
</g>
<!-- 1358dd701e5a1c80a5c1b70a6ccb30b8a5b7f85d -->
<g id="node4" class="node">
<title>1358dd701e5a1c80a5c1b70a6ccb30b8a5b7f85d</title>
<g id="a_node4"><a xlink:title="sha: 1358dd701e5a1c80a5c1b70a6ccb30b8a5b7f85d&#10;&#10;author: Marina Coder &lt;marina.coder@mail.com&gt;&#10;Wed Jan 01 12:00:00 2025 +0100&#10;committer: Marina Coder &lt;marina.coder@mail.com&gt;&#10;Wed Jan 01 12:00:00 2025 +0100&#10;&#10;D">
<polygon fill="#cdad00" stroke="#cdad00" points="22.06,-179.76 12.38,-179.76 12.38,-161.82 22.06,-161.82 22.06,-179.76"/>
<text text-anchor="middle" x="17.22" y="-165.74" font-family="Courier,monospace" font-size="14.00">D</text>
</a>
</g>
</g>
<!-- 1358dd701e5a1c80a5c1b70a6ccb30b8a5b7f85d&#45;&gt;02962dad541cf18b183b2bbd02610f8ce7075b82 -->
<g id="edge2" class="edge">
<title>1358dd701e5a1c80a5c1b70a6ccb30b8a5b7f85d&#45;&gt;02962dad541cf18b183b2bbd02610f8ce7075b82</title>
<path fill="none" stroke="#1a1a1a" d="M17.22,-161.67C17.22,-153.87 17.22,-141.89 17.22,-132.43"/>
<polygon fill="#1a1a1a" stroke="#1a1a1a" points="18.97,-132.59 17.22,-127.59 15.47,-132.59 18.97,-132.59"/>
</g>
<!-- 16886b13747e447a7155be1898ca09dd13759ad0 -->
<g id="node5" class="node">
<title>16886b13747e447a7155be1898ca09dd13759ad0</title>
<g id="a_node5"><a xlink:title="sha: 16886b13747e447a7155be1898ca09dd13759ad0&#10;&#10;author: Marina Coder &lt;marina.coder@mail.com&gt;&#10;Wed Jan 01 13:00:00 2025 +0100&#10;committer: Marina Coder &lt;marina.coder@mail.com&gt;&#10;Wed Jan 01 13:00:00 2025 +0100&#10;&#10;E">
<polygon fill="#cdad00" stroke="#cdad00" points="22.06,-233.7 12.38,-233.7 12.38,-215.76 22.06,-215.76 22.06,-233.7"/>
<text text-anchor="middle" x="17.22" y="-219.68" font-family="Courier,monospace" font-size="14.00">E</text>
</a>
</g>
</g>
<!-- 16886b13747e447a7155be1898ca09dd13759ad0&#45;&gt;1358dd701e5a1c80a5c1b70a6ccb30b8a5b7f85d -->
<g id="edge3" class="edge">
<title>16886b13747e447a7155be1898ca09dd13759ad0&#45;&gt;1358dd701e5a1c80a5c1b70a6ccb30b8a5b7f85d</title>
<path fill="none" stroke="#1a1a1a" d="M17.22,-215.61C17.22,-207.81 17.22,-195.83 17.22,-186.37"/>
<polygon fill="#1a1a1a" stroke="#1a1a1a" points="18.97,-186.53 17.22,-181.53 15.47,-186.53 18.97,-186.53"/>
</g>
<!-- HEAD -->
<g id="node6" class="node">
<title>HEAD</title>
<g id="a_node6"><a xlink:title="main">
<polygon fill="cornflowerblue" stroke="cornflowerblue" points="34.44,-341.58 0,-341.58 0,-323.64 34.44,-323.64 34.44,-341.58"/>
<text text-anchor="middle" x="17.22" y="-327.56" font-family="Courier,monospace" font-size="14.00">HEAD</text>
</a>
</g>
</g>
<!-- local&#45;branch&#45;main -->
<g id="node7" class="node">
<title>local&#45;branch&#45;main</title>
<g id="a_node7"><a xlink:title="&#45;&gt; None">
<polygon fill="forestgreen" stroke="forestgreen" points="34.44,-287.64 0,-287.64 0,-269.7 34.44,-269.7 34.44,-287.64"/>
<text text-anchor="middle" x="17.22" y="-273.62" font-family="Courier,monospace" font-size="14.00">main</text>
</a>
</g>
</g>
<!-- HEAD&#45;&gt;local&#45;branch&#45;main -->
<g id="edge4" class="edge">
<title>HEAD&#45;&gt;local&#45;branch&#45;main</title>
<path fill="none" stroke="#1a1a1a" d="M17.22,-323.49C17.22,-315.69 17.22,-303.71 17.22,-294.25"/>
<polygon fill="#1a1a1a" stroke="#1a1a1a" points="18.97,-294.41 17.22,-289.41 15.47,-294.41 18.97,-294.41"/>
</g>
<!-- local&#45;branch&#45;main&#45;&gt;16886b13747e447a7155be1898ca09dd13759ad0 -->
<g id="edge6" class="edge">
<title>local&#45;branch&#45;main&#45;&gt;16886b13747e447a7155be1898ca09dd13759ad0</title>
<path fill="none" stroke="#1a1a1a" d="M17.22,-269.55C17.22,-261.75 17.22,-249.77 17.22,-240.31"/>
<polygon fill="#1a1a1a" stroke="#1a1a1a" points="18.97,-240.47 17.22,-235.47 15.47,-240.47 18.97,-240.47"/>
</g>
</g>
</svg>
