<?xml version="1.0" encoding="UTF-8" standalone="no"?>
<!DOCTYPE svg PUBLIC "-//W3C//DTD SVG 1.1//EN"
 "http://www.w3.org/Graphics/SVG/1.1/DTD/svg11.dtd">
<!-- Generated by graphviz version 12.1.0 (20240811.2233)
 -->
<!-- Pages: 1 -->
<svg width="152pt" height="404pt"
 viewBox="0.00 0.00 152.31 403.52" xmlns="http://www.w3.org/2000/svg" xmlns:xlink="http://www.w3.org/1999/xlink">
<g id="graph0" class="graph" transform="scale(1 1) rotate(0) translate(4 399.52)">
<polygon fill="white" stroke="none" points="-4,4 -4,-399.52 148.31,-399.52 148.31,4 -4,4"/>
<!-- 8eca2b1c4353bcf2951061bbb7613ee92322a84d -->
<g id="node1" class="node">
<title>8eca2b1c4353bcf2951061bbb7613ee92322a84d</title>
<g id="a_node1"><a xlink:title="sha: 8eca2b1c4353bcf2951061bbb7613ee92322a84d&#10;&#10;author: Elena Coder &lt;elena.coder@mail.com&gt;&#10;Wed Jan 01 09:00:00 2025 +0100&#10;committer: Elena Coder &lt;elena.coder@mail.com&gt;&#10;Wed Jan 01 09:00:00 2025 +0100&#10;&#10;A">
<polygon fill="#cdad00" stroke="#cdad00" points="62.06,-17.94 52.38,-17.94 52.38,0 62.06,0 62.06,-17.94"/>
<text text-anchor="middle" x="57.22" y="-3.92" font-family="Courier,monospace" font-size="14.00">A</text>
</a>
</g>
</g>
<!-- ae481fe6194c1cc564022d8dff3767f86fa2a7fb -->
<g id="node2" class="node">
<title>ae481fe6194c1cc564022d8dff3767f86fa2a7fb</title>
<g id="a_node2"><a xlink:title="sha: ae481fe6194c1cc564022d8dff3767f86fa2a7fb&#10;&#10;author: Elena Coder &lt;elena.coder@mail.com&gt;&#10;Wed Jan 01 10:00:00 2025 +0100&#10;committer: Elena Coder &lt;elena.coder@mail.com&gt;&#10;Wed Jan 01 10:00:00 2025 +0100&#10;&#10;B">
<polygon fill="#cdad00" stroke="#cdad00" points="62.06,-71.88 52.38,-71.88 52.38,-53.94 62.06,-53.94 62.06,-71.88"/>
<text text-anchor="middle" x="57.22" y="-57.86" font-family="Courier,monospace" font-size="14.00">B</text>
</a>
</g>
</g>
<!-- ae481fe6194c1cc564022d8dff3767f86fa2a7fb&#45;&gt;8eca2b1c4353bcf2951061bbb7613ee92322a84d -->
<g id="edge8" class="edge">
<title>ae481fe6194c1cc564022d8dff3767f86fa2a7fb&#45;&gt;8eca2b1c4353bcf2951061bbb7613ee92322a84d</title>
<path fill="none" stroke="#1a1a1a" d="M57.22,-53.79C57.22,-45.99 57.22,-34.01 57.22,-24.55"/>
<polygon fill="#1a1a1a" stroke="#1a1a1a" points="58.97,-24.71 57.22,-19.71 55.47,-24.71 58.97,-24.71"/>
</g>
<!-- 02962dad541cf18b183b2bbd02610f8ce7075b82 -->
<g id="node3" class="node">
<title>02962dad541cf18b183b2bbd02610f8ce7075b82</title>
<g id="a_node3"><a xlink:title="sha: 02962dad541cf18b183b2bbd02610f8ce7075b82&#10;&#10;author: Elena Coder &lt;elena.coder@mail.com&gt;&#10;Wed Jan 01 11:00:00 2025 +0100&#10;committer: Elena Coder &lt;elena.coder@mail.com&gt;&#10;Wed Jan 01 11:00:00 2025 +0100&#10;&#10;C">
<polygon fill="#cdad00" stroke="#cdad00" points="62.06,-125.82 52.38,-125.82 52.38,-107.88 62.06,-107.88 62.06,-125.82"/>
<text text-anchor="middle" x="57.22" y="-111.8" font-family="Courier,monospace" font-size="14.00">C</text>
</a>
</g>
</g>
<!-- 02962dad541cf18b183b2bbd02610f8ce7075b82&#45;&gt;ae481fe6194c1cc564022d8dff3767f86fa2a7fb -->
<g id="edge1" class="edge">
<title>02962dad541cf18b183b2bbd02610f8ce7075b82&#45;&gt;ae481fe6194c1cc564022d8dff3767f86fa2a7fb</title>
<path fill="none" stroke="#1a1a1a" d="M57.22,-107.73C57.22,-99.93 57.22,-87.95 57.22,-78.49"/>
<polygon fill="#1a1a1a" stroke="#1a1a1a" points="58.97,-78.65 57.22,-73.65 55.47,-78.65 58.97,-78.65"/>
</g>
<!-- 1358dd701e5a1c80a5c1b70a6ccb30b8a5b7f85d -->
<g id="node4" class="node">
<title>1358dd701e5a1c80a5c1b70a6ccb30b8a5b7f85d</title>
<g id="a_node4"><a xlink:title="sha: 1358dd701e5a1c80a5c1b70a6ccb30b8a5b7f85d&#10;&#10;author: Marina Coder &lt;marina.coder@mail.com&gt;&#10;Wed Jan 01 12:00:00 2025 +0100&#10;committer: Marina Coder &lt;marina.coder@mail.com&gt;&#10;Wed Jan 01 12:00:00 2025 +0100&#10;&#10;D">
<polygon fill="#cdad00" stroke="#cdad00" points="48.06,-179.76 38.38,-179.76 38.38,-161.82 48.06,-161.82 48.06,-179.76"/>
<text text-anchor="middle" x="43.22" y="-165.74" font-family="Courier,monospace" font-size="14.00">D</text>
</a>
</g>
</g>
<!-- 1358dd701e5a1c80a5c1b70a6ccb30b8a5b7f85d&#45;&gt;02962dad541cf18b183b2bbd02610f8ce7075b82 -->
<g id="edge2" class="edge">
<title>1358dd701e5a1c80a5c1b70a6ccb30b8a5b7f85d&#45;&gt;02962dad541cf18b183b2bbd02610f8ce7075b82</title>
<path fill="none" stroke="#1a1a1a" d="M45.41,-161.67C47.53,-153.79 50.8,-141.66 53.36,-132.15"/>
<polygon fill="#1a1a1a" stroke="#1a1a1a" points="55,-132.82 54.61,-127.54 51.62,-131.91 55,-132.82"/>
</g>
<!-- 16886b13747e447a7155be1898ca09dd13759ad0 -->
<g id="node5" class="node">
<title>16886b13747e447a7155be1898ca09dd13759ad0</title>
<g id="a_node5"><a xlink:title="sha: 16886b13747e447a7155be1898ca09dd13759ad0&#10;&#10;author: Marina Coder &lt;marina.coder@mail.com&gt;&#10;Wed Jan 01 13:00:00 2025 +0100&#10;committer: Marina Coder &lt;marina.coder@mail.com&gt;&#10;Wed Jan 01 13:00:00 2025 +0100&#10;&#10;E">
<polygon fill="#cdad00" stroke="#cdad00" points="48.06,-233.7 38.38,-233.7 38.38,-215.76 48.06,-215.76 48.06,-233.7"/>
<text text-anchor="middle" x="43.22" y="-219.68" font-family="Courier,monospace" font-size="14.00">E</text>
</a>
</g>
</g>
<!-- 16886b13747e447a7155be1898ca09dd13759ad0&#45;&gt;1358dd701e5a1c80a5c1b70a6ccb30b8a5b7f85d -->
<g id="edge3" class="edge">
<title>16886b13747e447a7155be1898ca09dd13759ad0&#45;&gt;1358dd701e5a1c80a5c1b70a6ccb30b8a5b7f85d</title>
<path fill="none" stroke="#1a1a1a" d="M43.22,-215.61C43.22,-207.81 43.22,-195.83 43.22,-186.37"/>
<polygon fill="#1a1a1a" stroke="#1a1a1a" points="44.97,-186.53 43.22,-181.53 41.47,-186.53 44.97,-186.53"/>
</g>
<!-- f71c6af8c0de1b5a4d2a8bffc67f4e994c4c8d29 -->
<g id="node6" class="node">
<title>f71c6af8c0de1b5a4d2a8bffc67f4e994c4c8d29</title>
<g id="a_node6"><a xlink:title="sha: f71c6af8c0de1b5a4d2a8bffc67f4e994c4c8d29&#10;&#10;author: Elena Coder &lt;elena.coder@mail.com&gt;&#10;Wed Jan 01 12:00:00 2025 +0100&#10;committer: Elena Coder &lt;elena.coder@mail.com&gt;&#10;Wed Jan 01 12:00:00 2025 +0100&#10;&#10;F">
<polygon fill="#cdad00" stroke="#cdad00" points="76.06,-179.76 66.38,-179.76 66.38,-161.82 76.06,-161.82 76.06,-179.76"/>
<text text-anchor="middle" x="71.22" y="-165.74" font-family="Courier,monospace" font-size="14.00">F</text>
</a>
</g>
</g>
<!-- f71c6af8c0de1b5a4d2a8bffc67f4e994c4c8d29&#45;&gt;02962dad541cf18b183b2bbd02610f8ce7075b82 -->
<g id="edge9" class="edge">
<title>f71c6af8c0de1b5a4d2a8bffc67f4e994c4c8d29&#45;&gt;02962dad541cf18b183b2bbd02610f8ce7075b82</title>
<path fill="none" stroke="#1a1a1a" d="M69.03,-161.67C66.91,-153.79 63.64,-141.66 61.08,-132.15"/>
<polygon fill="#1a1a1a" stroke="#1a1a1a" points="62.82,-131.91 59.83,-127.54 59.44,-132.82 62.82,-131.91"/>
</g>
<!-- 7332855a73f97a9d693dba7c44e9e2d4727f97bb -->
<g id="node7" class="node">
<title>7332855a73f97a9d693dba7c44e9e2d4727f97bb</title>
<g id="a_node7"><a xlink:title="sha: 7332855a73f97a9d693dba7c44e9e2d4727f97bb&#10;&#10;author: Elena Coder &lt;elena.coder@mail.com&gt;&#10;Wed Jan 01 13:00:00 2025 +0100&#10;committer: Elena Coder &lt;elena.coder@mail.com&gt;&#10;Wed Jan 01 13:00:00 2025 +0100&#10;&#10;G">
<polygon fill="#cdad00" stroke="#cdad00" points="76.06,-233.7 66.38,-233.7 66.38,-215.76 76.06,-215.76 76.06,-233.7"/>
<text text-anchor="middle" x="71.22" y="-219.68" font-family="Courier,monospace" font-size="14.00">G</text>
</a>
</g>
</g>
<!-- 7332855a73f97a9d693dba7c44e9e2d4727f97bb&#45;&gt;f71c6af8c0de1b5a4d2a8bffc67f4e994c4c8d29 -->
<g id="edge6" class="edge">
<title>7332855a73f97a9d693dba7c44e9e2d4727f97bb&#45;&gt;f71c6af8c0de1b5a4d2a8bffc67f4e994c4c8d29</title>
<path fill="none" stroke="#1a1a1a" d="M71.22,-215.61C71.22,-207.81 71.22,-195.83 71.22,-186.37"/>
<polygon fill="#1a1a1a" stroke="#1a1a1a" points="72.97,-186.53 71.22,-181.53 69.47,-186.53 72.97,-186.53"/>
</g>
<!-- HEAD -->
<g id="node8" class="node">
<title>HEAD</title>
<g id="a_node8"><a xlink:title="main">
<polygon fill="cornflowerblue" stroke="cornflowerblue" points="34.44,-395.52 0,-395.52 0,-377.58 34.44,-377.58 34.44,-395.52"/>
<text text-anchor="middle" x="17.22" y="-381.5" font-family="Courier,monospace" font-size="14.00">HEAD</text>
</a>
</g>
</g>
<!-- local&#45;branch&#45;main -->
<g id="node10" class="node">
<title>local&#45;branch&#45;main</title>
<g id="a_node10"><a xlink:title="&#45;&gt; refs/remotes/origin/main">
<polygon fill="forestgreen" stroke="forestgreen" points="34.44,-341.58 0,-341.58 0,-323.64 34.44,-323.64 34.44,-341.58"/>
<text text-anchor="middle" x="17.22" y="-327.56" font-family="Courier,monospace" font-size="14.00">main</text>
</a>
</g>
</g>
<!-- HEAD&#45;&gt;local&#45;branch&#45;main -->
<g id="edge7" class="edge">
<title>HEAD&#45;&gt;local&#45;branch&#45;main</title>
<path fill="none" stroke="#1a1a1a" d="M17.22,-377.43C17.22,-369.63 17.22,-357.65 17.22,-348.19"/>
<polygon fill="#1a1a1a" stroke="#1a1a1a" points="18.97,-348.35 17.22,-343.35 15.47,-348.35 18.97,-348.35"/>
</g>
<!-- 3dddd4a26ad3a31aacf63649d059d6d1b55896d5 -->
<g id="node9" class="node">
<title>3dddd4a26ad3a31aacf63649d059d6d1b55896d5</title>
<g id="a_node9"><a xlink:title="sha: 3dddd4a26ad3a31aacf63649d059d6d1b55896d5&#10;&#10;author: Elena Coder &lt;elena.coder@mail.com&gt;&#10;Wed Jan 01 14:00:00 2025 +0100&#10;committer: Elena Coder &lt;elena.coder@mail.com&gt;&#10;Wed Jan 01 14:00:00 2025 +0100&#10;&#10;m">
<polygon fill="#cdad00" stroke="#cdad00" points="62.06,-287.64 52.38,-287.64 52.38,-269.7 62.06,-269.7 62.06,-287.64"/>
<text text-anchor="middle" x="57.22" y="-273.62" font-family="Courier,monospace" font-size="14.00">m</text>
</a>
</g>
</g>
<!-- 3dddd4a26ad3a31aacf63649d059d6d1b55896d5&#45;&gt;16886b13747e447a7155be1898ca09dd13759ad0 -->
<g id="edge4" class="edge">
<title>3dddd4a26ad3a31aacf63649d059d6d1b55896d5&#45;&gt;16886b13747e447a7155be1898ca09dd13759ad0</title>
<path fill="none" stroke="#1a1a1a" d="M55.03,-269.55C52.91,-261.67 49.64,-249.54 47.08,-240.03"/>
<polygon fill="#1a1a1a" stroke="#1a1a1a" points="48.82,-239.79 45.83,-235.42 45.44,-240.7 48.82,-239.79"/>
</g>
<!-- 3dddd4a26ad3a31aacf63649d059d6d1b55896d5&#45;&gt;7332855a73f97a9d693dba7c44e9e2d4727f97bb -->
<g id="edge5" class="edge">
<title>3dddd4a26ad3a31aacf63649d059d6d1b55896d5&#45;&gt;7332855a73f97a9d693dba7c44e9e2d4727f97bb</title>
<path fill="none" stroke="#1a1a1a" d="M59.41,-269.55C61.53,-261.67 64.8,-249.54 67.36,-240.03"/>
<polygon fill="#1a1a1a" stroke="#1a1a1a" points="69,-240.7 68.61,-235.42 65.62,-239.79 69,-240.7"/>
</g>
<!-- local&#45;branch&#45;main&#45;&gt;3dddd4a26ad3a31aacf63649d059d6d1b55896d5 -->
<g id="edge10" class="edge">
<title>local&#45;branch&#45;main&#45;&gt;3dddd4a26ad3a31aacf63649d059d6d1b55896d5</title>
<path fill="none" stroke="#1a1a1a" d="M23.47,-323.49C30.07,-314.92 40.54,-301.33 48.07,-291.55"/>
<polygon fill="#1a1a1a" stroke="#1a1a1a" points="49.32,-292.8 50.98,-287.77 46.55,-290.66 49.32,-292.8"/>
</g>
<!-- origin/HEAD -->
<g id="node11" class="node">
<title>origin/HEAD</title>
<g id="a_node11"><a xlink:title="origin/main">
<polygon fill="cornflowerblue" stroke="cornflowerblue" points="144.31,-395.52 52.12,-395.52 52.12,-377.58 144.31,-377.58 144.31,-395.52"/>
<text text-anchor="middle" x="98.22" y="-381.5" font-family="Courier,monospace" font-size="14.00">origin/HEAD</text>
</a>
</g>
</g>
<!-- remote&#45;branch&#45;origin/main -->
<g id="node12" class="node">
<title>remote&#45;branch&#45;origin/main</title>
<polygon fill="firebrick" stroke="firebrick" points="144.31,-341.58 52.12,-341.58 52.12,-323.64 144.31,-323.64 144.31,-341.58"/>
<text text-anchor="middle" x="98.22" y="-327.56" font-family="Courier,monospace" font-size="14.00">origin/main</text>
</g>
<!-- origin/HEAD&#45;&gt;remote&#45;branch&#45;origin/main -->
<g id="edge11" class="edge">
<title>origin/HEAD&#45;&gt;remote&#45;branch&#45;origin/main</title>
<path fill="none" stroke="#1a1a1a" d="M98.22,-377.43C98.22,-369.63 98.22,-357.65 98.22,-348.19"/>
<polygon fill="#1a1a1a" stroke="#1a1a1a" points="99.97,-348.35 98.22,-343.35 96.47,-348.35 99.97,-348.35"/>
</g>
<!-- remote&#45;branch&#45;origin/main&#45;&gt;3dddd4a26ad3a31aacf63649d059d6d1b55896d5 -->
<g id="edge12" class="edge">
<title>remote&#45;branch&#45;origin/main&#45;&gt;3dddd4a26ad3a31aacf63649d059d6d1b55896d5</title>
<path fill="none" stroke="#1a1a1a" d="M91.81,-323.49C84.97,-314.83 74.07,-301.02 66.34,-291.22"/>
<polygon fill="#1a1a1a" stroke="#1a1a1a" points="67.82,-290.28 63.35,-287.44 65.07,-292.45 67.82,-290.28"/>
</g>
</g>
</svg>
