<?xml version="1.0" encoding="UTF-8" standalone="no"?>
<!DOCTYPE svg PUBLIC "-//W3C//DTD SVG 1.1//EN"
 "http://www.w3.org/Graphics/SVG/1.1/DTD/svg11.dtd">
<!-- Generated by graphviz version 12.1.0 (20240811.2233)
 -->
<!-- Pages: 1 -->
<svg width="46pt" height="404pt"
 viewBox="0.00 0.00 45.69 403.52" xmlns="http://www.w3.org/2000/svg" xmlns:xlink="http://www.w3.org/1999/xlink">
<g id="graph0" class="graph" transform="scale(1 1) rotate(0) translate(4 399.52)">
<polygon fill="white" stroke="none" points="-4,4 -4,-399.52 41.69,-399.52 41.69,4 -4,4"/>
<!-- 8eca2b1c4353bcf2951061bbb7613ee92322a84d -->
<g id="node1" class="node">
<title>8eca2b1c4353bcf2951061bbb7613ee92322a84d</title>
<g id="a_node1"><a xlink:title="sha: 8eca2b1c4353bcf2951061bbb7613ee92322a84d&#10;&#10;author: Elena Coder &lt;elena.coder@mail.com&gt;&#10;Wed Jan 01 09:00:00 2025 +0100&#10;committer: Elena Coder &lt;elena.coder@mail.com&gt;&#10;Wed Jan 01 09:00:00 2025 +0100&#10;&#10;A">
<polygon fill="#cdad00" stroke="#cdad00" points="23.69,-17.94 14,-17.94 14,0 23.69,0 23.69,-17.94"/>
<text text-anchor="middle" x="18.84" y="-3.92" font-family="Courier,monospace" font-size="14.00">A</text>
</a>
</g>
</g>
<!-- ae481fe6194c1cc564022d8dff3767f86fa2a7fb -->
<g id="node2" class="node">
<title>ae481fe6194c1cc564022d8dff3767f86fa2a7fb</title>
<g id="a_node2"><a xlink:title="sha: ae481fe6194c1cc564022d8dff3767f86fa2a7fb&#10;&#10;author: Elena Coder &lt;elena.coder@mail.com&gt;&#10;Wed Jan 01 10:00:00 2025 +0100&#10;committer: Elena Coder &lt;elena.coder@mail.com&gt;&#10;Wed Jan 01 10:00:00 2025 +0100&#10;&#10;B">
<polygon fill="#cdad00" stroke="#cdad00" points="23.69,-71.88 14,-71.88 14,-53.94 23.69,-53.94 23.69,-71.88"/>
<text text-anchor="middle" x="18.84" y="-57.86" font-family="Courier,monospace" font-size="14.00">B</text>
</a>
</g>
</g>
<!-- ae481fe6194c1cc564022d8dff3767f86fa2a7fb&#45;&gt;8eca2b1c4353bcf2951061bbb7613ee92322a84d -->
<g id="edge8" class="edge">
<title>ae481fe6194c1cc564022d8dff3767f86fa2a7fb&#45;&gt;8eca2b1c4353bcf2951061bbb7613ee92322a84d</title>
<path fill="none" stroke="#1a1a1a" d="M18.84,-53.79C18.84,-45.99 18.84,-34.01 18.84,-24.55"/>
<polygon fill="#1a1a1a" stroke="#1a1a1a" points="20.6,-24.71 18.85,-19.71 17.1,-24.71 20.6,-24.71"/>
</g>
<!-- 02962dad541cf18b183b2bbd02610f8ce7075b82 -->
<g id="node3" class="node">
<title>02962dad541cf18b183b2bbd02610f8ce7075b82</title>
<g id="a_node3"><a xlink:title="sha: 02962dad541cf18b183b2bbd02610f8ce7075b82&#10;&#10;author: Elena Coder &lt;elena.coder@mail.com&gt;&#10;Wed Jan 01 11:00:00 2025 +0100&#10;committer: Elena Coder &lt;elena.coder@mail.com&gt;&#10;Wed Jan 01 11:00:00 2025 +0100&#10;&#10;C">
<polygon fill="#cdad00" stroke="#cdad00" points="23.69,-125.82 14,-125.82 14,-107.88 23.69,-107.88 23.69,-125.82"/>
<text text-anchor="middle" x="18.84" y="-111.8" font-family="Courier,monospace" font-size="14.00">C</text>
</a>
</g>
</g>
<!-- 02962dad541cf18b183b2bbd02610f8ce7075b82&#45;&gt;ae481fe6194c1cc564022d8dff3767f86fa2a7fb -->
<g id="edge1" class="edge">
<title>02962dad541cf18b183b2bbd02610f8ce7075b82&#45;&gt;ae481fe6194c1cc564022d8dff3767f86fa2a7fb</title>
<path fill="none" stroke="#1a1a1a" d="M18.84,-107.73C18.84,-99.93 18.84,-87.95 18.84,-78.49"/>
<polygon fill="#1a1a1a" stroke="#1a1a1a" points="20.6,-78.65 18.85,-73.65 17.1,-78.65 20.6,-78.65"/>
</g>
<!-- 1358dd701e5a1c80a5c1b70a6ccb30b8a5b7f85d -->
<g id="node4" class="node">
<title>1358dd701e5a1c80a5c1b70a6ccb30b8a5b7f85d</title>
<g id="a_node4"><a xlink:title="sha: 1358dd701e5a1c80a5c1b70a6ccb30b8a5b7f85d&#10;&#10;author: Marina Coder &lt;marina.coder@mail.com&gt;&#10;Wed Jan 01 12:00:00 2025 +0100&#10;committer: Marina Coder &lt;marina.coder@mail.com&gt;&#10;Wed Jan 01 12:00:00 2025 +0100&#10;&#10;D">
<polygon fill="#cdad00" stroke="#cdad00" points="9.69,-179.76 0,-179.76 0,-161.82 9.69,-161.82 9.69,-179.76"/>
<text text-anchor="middle" x="4.84" y="-165.74" font-family="Courier,monospace" font-size="14.00">D</text>
</a>
</g>
</g>
<!-- 1358dd701e5a1c80a5c1b70a6ccb30b8a5b7f85d&#45;&gt;02962dad541cf18b183b2bbd02610f8ce7075b82 -->
<g id="edge2" class="edge">
<title>1358dd701e5a1c80a5c1b70a6ccb30b8a5b7f85d&#45;&gt;02962dad541cf18b183b2bbd02610f8ce7075b82</title>
<path fill="none" stroke="#1a1a1a" d="M7.03,-161.67C9.16,-153.79 12.43,-141.66 14.99,-132.15"/>
<polygon fill="#1a1a1a" stroke="#1a1a1a" points="16.62,-132.82 16.23,-127.54 13.24,-131.91 16.62,-132.82"/>
</g>
<!-- 16886b13747e447a7155be1898ca09dd13759ad0 -->
<g id="node5" class="node">
<title>16886b13747e447a7155be1898ca09dd13759ad0</title>
<g id="a_node5"><a xlink:title="sha: 16886b13747e447a7155be1898ca09dd13759ad0&#10;&#10;author: Marina Coder &lt;marina.coder@mail.com&gt;&#10;Wed Jan 01 13:00:00 2025 +0100&#10;committer: Marina Coder &lt;marina.coder@mail.com&gt;&#10;Wed Jan 01 13:00:00 2025 +0100&#10;&#10;E">
<polygon fill="#cdad00" stroke="#cdad00" points="9.69,-233.7 0,-233.7 0,-215.76 9.69,-215.76 9.69,-233.7"/>
<text text-anchor="middle" x="4.84" y="-219.68" font-family="Courier,monospace" font-size="14.00">E</text>
</a>
</g>
</g>
<!-- 16886b13747e447a7155be1898ca09dd13759ad0&#45;&gt;1358dd701e5a1c80a5c1b70a6ccb30b8a5b7f85d -->
<g id="edge3" class="edge">
<title>16886b13747e447a7155be1898ca09dd13759ad0&#45;&gt;1358dd701e5a1c80a5c1b70a6ccb30b8a5b7f85d</title>
<path fill="none" stroke="#1a1a1a" d="M4.84,-215.61C4.84,-207.81 4.84,-195.83 4.84,-186.37"/>
<polygon fill="#1a1a1a" stroke="#1a1a1a" points="6.6,-186.53 4.85,-181.53 3.1,-186.53 6.6,-186.53"/>
</g>
<!-- f71c6af8c0de1b5a4d2a8bffc67f4e994c4c8d29 -->
<g id="node6" class="node">
<title>f71c6af8c0de1b5a4d2a8bffc67f4e994c4c8d29</title>
<g id="a_node6"><a xlink:title="sha: f71c6af8c0de1b5a4d2a8bffc67f4e994c4c8d29&#10;&#10;author: Elena Coder &lt;elena.coder@mail.com&gt;&#10;Wed Jan 01 12:00:00 2025 +0100&#10;committer: Elena Coder &lt;elena.coder@mail.com&gt;&#10;Wed Jan 01 12:00:00 2025 +0100&#10;&#10;F">
<polygon fill="#cdad00" stroke="#cdad00" points="37.69,-179.76 28,-179.76 28,-161.82 37.69,-161.82 37.69,-179.76"/>
<text text-anchor="middle" x="32.84" y="-165.74" font-family="Courier,monospace" font-size="14.00">F</text>
</a>
</g>
</g>
<!-- f71c6af8c0de1b5a4d2a8bffc67f4e994c4c8d29&#45;&gt;02962dad541cf18b183b2bbd02610f8ce7075b82 -->
<g id="edge9" class="edge">
<title>f71c6af8c0de1b5a4d2a8bffc67f4e994c4c8d29&#45;&gt;02962dad541cf18b183b2bbd02610f8ce7075b82</title>
<path fill="none" stroke="#1a1a1a" d="M30.66,-161.67C28.53,-153.79 25.26,-141.66 22.7,-132.15"/>
<polygon fill="#1a1a1a" stroke="#1a1a1a" points="24.45,-131.91 21.46,-127.54 21.07,-132.82 24.45,-131.91"/>
</g>
<!-- 7332855a73f97a9d693dba7c44e9e2d4727f97bb -->
<g id="node7" class="node">
<title>7332855a73f97a9d693dba7c44e9e2d4727f97bb</title>
<g id="a_node7"><a xlink:title="sha: 7332855a73f97a9d693dba7c44e9e2d4727f97bb&#10;&#10;author: Elena Coder &lt;elena.coder@mail.com&gt;&#10;Wed Jan 01 13:00:00 2025 +0100&#10;committer: Elena Coder &lt;elena.coder@mail.com&gt;&#10;Wed Jan 01 13:00:00 2025 +0100&#10;&#10;G">
<polygon fill="#cdad00" stroke="#cdad00" points="37.69,-233.7 28,-233.7 28,-215.76 37.69,-215.76 37.69,-233.7"/>
<text text-anchor="middle" x="32.84" y="-219.68" font-family="Courier,monospace" font-size="14.00">G</text>
</a>
</g>
</g>
<!-- 7332855a73f97a9d693dba7c44e9e2d4727f97bb&#45;&gt;f71c6af8c0de1b5a4d2a8bffc67f4e994c4c8d29 -->
<g id="edge6" class="edge">
<title>7332855a73f97a9d693dba7c44e9e2d4727f97bb&#45;&gt;f71c6af8c0de1b5a4d2a8bffc67f4e994c4c8d29</title>
<path fill="none" stroke="#1a1a1a" d="M32.84,-215.61C32.84,-207.81 32.84,-195.83 32.84,-186.37"/>
<polygon fill="#1a1a1a" stroke="#1a1a1a" points="34.6,-186.53 32.85,-181.53 31.1,-186.53 34.6,-186.53"/>
</g>
<!-- HEAD -->
<g id="node8" class="node">
<title>HEAD</title>
<g id="a_node8"><a xlink:title="main">
<polygon fill="cornflowerblue" stroke="cornflowerblue" points="36.06,-395.52 1.62,-395.52 1.62,-377.58 36.06,-377.58 36.06,-395.52"/>
<text text-anchor="middle" x="18.84" y="-381.5" font-family="Courier,monospace" font-size="14.00">HEAD</text>
</a>
</g>
</g>
<!-- local&#45;branch&#45;main -->
<g id="node10" class="node">
<title>local&#45;branch&#45;main</title>
<g id="a_node10"><a xlink:title="&#45;&gt; None">
<polygon fill="forestgreen" stroke="forestgreen" points="36.06,-341.58 1.62,-341.58 1.62,-323.64 36.06,-323.64 36.06,-341.58"/>
<text text-anchor="middle" x="18.84" y="-327.56" font-family="Courier,monospace" font-size="14.00">main</text>
</a>
</g>
</g>
<!-- HEAD&#45;&gt;local&#45;branch&#45;main -->
<g id="edge7" class="edge">
<title>HEAD&#45;&gt;local&#45;branch&#45;main</title>
<path fill="none" stroke="#1a1a1a" d="M18.84,-377.43C18.84,-369.63 18.84,-357.65 18.84,-348.19"/>
<polygon fill="#1a1a1a" stroke="#1a1a1a" points="20.6,-348.35 18.85,-343.35 17.1,-348.35 20.6,-348.35"/>
</g>
<!-- 3dddd4a26ad3a31aacf63649d059d6d1b55896d5 -->
<g id="node9" class="node">
<title>3dddd4a26ad3a31aacf63649d059d6d1b55896d5</title>
<g id="a_node9"><a xlink:title="sha: 3dddd4a26ad3a31aacf63649d059d6d1b55896d5&#10;&#10;author: Elena Coder &lt;elena.coder@mail.com&gt;&#10;Wed Jan 01 14:00:00 2025 +0100&#10;committer: Elena Coder &lt;elena.coder@mail.com&gt;&#10;Wed Jan 01 14:00:00 2025 +0100&#10;&#10;m">
<polygon fill="#cdad00" stroke="#cdad00" points="23.69,-287.64 14,-287.64 14,-269.7 23.69,-269.7 23.69,-287.64"/>
<text text-anchor="middle" x="18.84" y="-273.62" font-family="Courier,monospace" font-size="14.00">m</text>
</a>
</g>
</g>
<!-- 3dddd4a26ad3a31aacf63649d059d6d1b55896d5&#45;&gt;16886b13747e447a7155be1898ca09dd13759ad0 -->
<g id="edge4" class="edge">
<title>3dddd4a26ad3a31aacf63649d059d6d1b55896d5&#45;&gt;16886b13747e447a7155be1898ca09dd13759ad0</title>
<path fill="none" stroke="#1a1a1a" d="M16.66,-269.55C14.53,-261.67 11.26,-249.54 8.7,-240.03"/>
<polygon fill="#1a1a1a" stroke="#1a1a1a" points="10.45,-239.79 7.46,-235.42 7.07,-240.7 10.45,-239.79"/>
</g>
<!-- 3dddd4a26ad3a31aacf63649d059d6d1b55896d5&#45;&gt;7332855a73f97a9d693dba7c44e9e2d4727f97bb -->
<g id="edge5" class="edge">
<title>3dddd4a26ad3a31aacf63649d059d6d1b55896d5&#45;&gt;7332855a73f97a9d693dba7c44e9e2d4727f97bb</title>
<path fill="none" stroke="#1a1a1a" d="M21.03,-269.55C23.16,-261.67 26.43,-249.54 28.99,-240.03"/>
<polygon fill="#1a1a1a" stroke="#1a1a1a" points="30.62,-240.7 30.23,-235.42 27.24,-239.79 30.62,-240.7"/>
</g>
<!-- local&#45;branch&#45;main&#45;&gt;3dddd4a26ad3a31aacf63649d059d6d1b55896d5 -->
<g id="edge10" class="edge">
<title>local&#45;branch&#45;main&#45;&gt;3dddd4a26ad3a31aacf63649d059d6d1b55896d5</title>
<path fill="none" stroke="#1a1a1a" d="M18.84,-323.49C18.84,-315.69 18.84,-303.71 18.84,-294.25"/>
<polygon fill="#1a1a1a" stroke="#1a1a1a" points="20.6,-294.41 18.85,-289.41 17.1,-294.41 20.6,-294.41"/>
</g>
</g>
</svg>
